<svg xmlns="http://www.w3.org/2000/svg" width="24" height="24" viewBox="0 0 24 24">
    <g fill="none" fill-rule="evenodd">
        <g fill="#00B0F0">
            <g>
                <g>
                    <path d="M8 13v9H0v-9h8zm16 0v9h-8v-9h8zM11.873 3L16 3.001 14.717 4.33 16 5.659h-3.402v1.03l2.873 2.46V22h-1.863v-5.03l-1.373-1.174-1.372 1.174v5.029H9V9.149l2.873-2.46V3zM6.426 19.44H4.933v1.42h1.493v-1.42zm-3.359 0H1.572v1.42h1.495v-1.42zm19.362 0h-1.495v1.42h1.495v-1.42zm-3.363 0h-1.494v1.42h1.494v-1.42zm-12.64-2.65H4.933v1.42h1.493v-1.42zm-3.359 0H1.572v1.42h1.495v-1.42zm19.362 0h-1.495v1.42h1.495v-1.42zm-3.363 0h-1.494v1.42h1.494v-1.42zm-12.64-2.651H4.933v1.42h1.493v-1.42zm-3.359 0H1.572v1.42h1.495v-1.42zm19.362 0h-1.495v1.42h1.495v-1.42zm-3.363 0h-1.494v1.42h1.494v-1.42zm-6.83-4.214c-.74 0-1.339.595-1.339 1.329 0 .733.599 1.328 1.338 1.328.74 0 1.338-.594 1.338-1.328 0-.734-.598-1.33-1.338-1.329zM8 10v2H0l1.436-2H8zm14.564 0L24 12h-8v-2h6.564z" transform="translate(-32 -180) translate(12 12) translate(20 168)"/>
                </g>
            </g>
        </g>
    </g>
</svg>
