<svg xmlns="http://www.w3.org/2000/svg" width="20" height="20" viewBox="0 0 20 20">
    <g fill="none" fill-rule="evenodd">
        <g fill="#00B0F0">
            <g>
                <g>
                    <g>
                        <path d="M13.462 10.234l-3.879 5.488-3.878-5.488h.018C5.264 9.502 5 8.624 5 7.673c0-2.634 2.045-4.756 4.583-4.756 2.538 0 4.584 2.122 4.584 4.756 0 .95-.265 1.829-.705 2.56zm-3.879-4.39c-.97 0-1.762.823-1.762 1.829s.793 1.829 1.762 1.829c.97 0 1.763-.823 1.763-1.83 0-1.005-.793-1.829-1.763-1.829zm0 10.61c2.538 0 4.584.329 4.584.731 0 .402-2.046.732-4.584.732S5 17.587 5 17.185c0-.402 2.045-.732 4.583-.732z" transform="translate(-234 -263) translate(130 210) translate(104 24) translate(0 29)"/>
                    </g>
                </g>
            </g>
        </g>
    </g>
</svg>
