<svg xmlns="http://www.w3.org/2000/svg" width="16" height="16" viewBox="0 0 16 16">
    <defs>
        <filter id="vlqy6wz8ma">
            <feColorMatrix in="SourceGraphic" values="0 0 0 0 0.850980 0 0 0 0 0.298039 0 0 0 0 0.298039 0 0 0 1.000000 0"/>
        </filter>
    </defs>
    <g fill="none" fill-rule="evenodd">
        <g>
            <g>
                <g filter="url(#vlqy6wz8ma)" transform="translate(-143 -754) translate(0 423) translate(143 330)">
                    <g>
                        <path fill="#00B0F0" d="M5.333 0v2H2.667c-.295 0-.534.224-.534.5v11c0 .276.239.5.534.5h2.666v2H2.667c-.708 0-1.386-.264-1.886-.732C.281 14.798 0 14.163 0 13.5v-11C0 1.12 1.194 0 2.667 0h2.666zM12 4l3.707 3.64c.189.183.294.433.294.693 0 .261-.105.51-.294.694L12 12.667l-1.415-1.39 2-1.962H4V7.352h8.584l-2-1.963L12 4z" transform="translate(0 1)"/>
                    </g>
                </g>
            </g>
        </g>
    </g>
</svg>
