<svg xmlns="http://www.w3.org/2000/svg" width="40" height="40" viewBox="0 0 40 40">
    <g fill="none" fill-rule="evenodd">
        <g fill="#9AA1A3">
            <g>
                <path d="M20 6.667c.811 0 1.47.623 1.47 1.389v1.041C23.514 9.69 25 11.49 25 13.611c0 2.122-1.487 3.922-3.53 4.514v12.153c0 .766-.659 1.389-1.47 1.389-.811 0-1.47-.623-1.47-1.39V18.126c-2.043-.592-3.53-2.392-3.53-4.514 0-2.122 1.487-3.921 3.53-4.514V8.056c0-.766.659-1.39 1.47-1.39zm-10 0c.811 0 1.47.623 1.47 1.389v13.263c2.043.593 3.53 2.392 3.53 4.514 0 2.125-1.489 3.922-3.532 4.514-.039.736-.68 1.32-1.468 1.32-.788 0-1.43-.584-1.468-1.32C6.487 29.755 5 27.956 5 25.833c0-2.122 1.487-3.921 3.53-4.514V8.056c0-.766.659-1.39 1.47-1.39zm20 0c.811 0 1.47.623 1.47 1.389v9.375c2.043.592 3.53 2.391 3.53 4.513 0 2.123-1.487 3.922-3.53 4.514v3.82c0 .766-.659 1.389-1.47 1.389-.811 0-1.47-.623-1.47-1.39v-3.819c-2.043-.592-3.53-2.391-3.53-4.514 0-2.122 1.487-3.921 3.53-4.513V8.056c0-.766.659-1.39 1.47-1.39zM10 23.889c-1.135 0-2.059.872-2.059 1.944s.924 1.945 2.059 1.945c1.135 0 2.059-.873 2.059-1.945S11.135 23.89 10 23.89zM30 20c-1.135 0-2.059.872-2.059 1.944 0 1.073.924 1.945 2.059 1.945 1.135 0 2.059-.872 2.059-1.945C32.059 20.872 31.135 20 30 20zm-10-8.333c-1.135 0-2.059.872-2.059 1.944s.924 1.945 2.059 1.945c1.135 0 2.059-.873 2.059-1.945s-.924-1.944-2.059-1.944z" transform="translate(-1187 -132) translate(1187 132)"/>
            </g>
        </g>
    </g>
</svg>
