<svg xmlns="http://www.w3.org/2000/svg" width="8" height="8" viewBox="0 0 8 8">
    <g fill="none" fill-rule="evenodd">
        <g fill="#F0F0F0">
            <g>
                <g>
                    <g>
                        <g>
                            <path d="M6.605.115l-2.969 2.97L.668.114c-.153-.153-.4-.153-.553 0-.153.152-.153.4 0 .553l2.968 2.97L.115 6.604c-.153.152-.153.4 0 .553.152.153.4.153.553 0L3.636 4.19l2.969 2.97c.152.152.4.152.553 0 .153-.154.153-.401 0-.554L4.19 3.637 7.158.668c.153-.153.153-.4 0-.553-.153-.153-.4-.153-.553 0z" transform="translate(-104 -266) translate(0 108) translate(75 154) translate(25) translate(4.364 4.364)"/>
                        </g>
                    </g>
                </g>
            </g>
        </g>
    </g>
</svg>
