<svg xmlns="http://www.w3.org/2000/svg" width="24" height="24" viewBox="0 0 24 24">
    <g fill="none" fill-rule="evenodd">
        <g fill="#00B0F0">
            <path d="M11.52 15c2.486 0 4.48 1.983 4.48 4H7c0-2.017 2.037-4 4.52-4zm-5.33-2c1.712 0 3.172.82 3.81 1.862-.707.262-1.333.654-1.841 1.138H2c0-1.512 1.887-3 4.19-3zm11.638 0C20.144 13 22 14.488 22 16h-6.017c-.542-.515-1.219-.924-1.983-1.186.668-1.018 2.136-1.814 3.828-1.814zm-5.827-4C13.657 9 15 10.343 15 12s-1.343 3-3 3-3-1.343-3-3 1.343-3 3-3zM17.5 7C18.88 7 20 8.12 20 9.5S18.88 12 17.5 12 15 10.88 15 9.5 16.12 7 17.5 7zm-11 0C7.88 7 9 8.12 9 9.5S7.88 12 6.5 12 4 10.88 4 9.5 5.12 7 6.5 7zm5.013-3c1.832 0 3.458.92 4.487 2.343-.335.15-.643.354-.915.6-.834-1.106-2.125-1.816-3.572-1.816-1.473 0-2.783.734-3.616 1.873-.265-.253-.567-.463-.897-.62C8.026 4.934 9.665 4 11.513 4z"/>
        </g>
    </g>
</svg>
