<svg xmlns="http://www.w3.org/2000/svg" width="20" height="20" viewBox="0 0 20 20">
    <g fill="none" fill-rule="evenodd">
        <g fill="#f0f0f0">
            <g>
                <g>
                    <g>
                        <path d="M9.6 12.5c2.072 0 3.733 1.652 3.733 3.333h-7.5c0-1.68 1.698-3.333 3.767-3.333zM5.16 10.833c1.426 0 2.643.684 3.174 1.552-.588.219-1.11.545-1.534.948H1.667c0-1.26 1.573-2.5 3.492-2.5zm9.698 0c1.93 0 3.476 1.24 3.476 2.5H13.32c-.452-.429-1.015-.77-1.652-.988.556-.849 1.78-1.512 3.19-1.512zM10 7.5c1.38 0 2.5 1.12 2.5 2.5s-1.12 2.5-2.5 2.5-2.5-1.12-2.5-2.5S8.62 7.5 10 7.5zm4.583-1.667c1.15 0 2.084.933 2.084 2.083 0 1.151-.933 2.084-2.084 2.084-1.15 0-2.083-.933-2.083-2.084 0-1.15.933-2.083 2.083-2.083zm-9.166 0c1.15 0 2.083.933 2.083 2.083C7.5 9.067 6.567 10 5.417 10c-1.15 0-2.084-.933-2.084-2.084 0-1.15.934-2.083 2.084-2.083zm4.177-2.5c1.526 0 2.882.767 3.74 1.953-.28.125-.536.295-.763.5-.695-.922-1.77-1.514-2.977-1.514-1.228 0-2.319.612-3.013 1.561-.221-.21-.473-.385-.748-.517.855-1.204 2.221-1.983 3.761-1.983z" transform="translate(-906 -263) translate(130 210) translate(776 24) translate(0 29)"/>
                    </g>
                </g>
            </g>
        </g>
    </g>
</svg>
