<svg xmlns="http://www.w3.org/2000/svg" width="20" height="20" viewBox="0 0 20 20">
    <g fill="none" fill-rule="evenodd">
        <g fill="#00B0F0">
            <g>
                <g>
                    <g>
                        <path d="M10 2.5c-.845 0-1.538.691-1.538 1.534 0 .726.514 1.335 1.196 1.492v2.12c-.634.09-1.188.428-1.56.916L6.314 7.465c.062-.167.096-.346.096-.533 0-.843-.693-1.534-1.538-1.534-.846 0-1.539.69-1.539 1.534 0 .843.693 1.534 1.539 1.534.412 0 .786-.166 1.063-.432l1.832 1.124c-.1.263-.16.546-.16.842 0 .294.061.575.16.836L5.93 11.96c-.277-.263-.649-.426-1.058-.426-.846 0-1.539.691-1.539 1.534 0 .843.693 1.534 1.539 1.534.845 0 1.538-.69 1.538-1.534 0-.189-.037-.37-.101-.538l1.79-1.097c.371.489.923.83 1.56.921v2.12c-.683.157-1.197.766-1.197 1.492 0 .843.693 1.534 1.538 1.534.845 0 1.538-.691 1.538-1.534 0-.726-.514-1.335-1.196-1.492v-2.12c.636-.09 1.188-.432 1.56-.921l1.79 1.097c-.065.168-.102.35-.102.538 0 .843.693 1.534 1.538 1.534.846 0 1.539-.69 1.539-1.534 0-.843-.693-1.534-1.539-1.534-.41 0-.781.163-1.058.426l-1.837-1.124c.099-.26.16-.542.16-.836 0-.296-.06-.58-.16-.842l1.832-1.124c.277.266.651.432 1.063.432.846 0 1.539-.691 1.539-1.534 0-.843-.693-1.534-1.539-1.534-.845 0-1.538.69-1.538 1.534 0 .187.034.366.096.533l-1.784 1.097c-.372-.488-.926-.825-1.56-.916v-2.12c.682-.157 1.196-.766 1.196-1.492 0-.843-.693-1.534-1.538-1.534z" transform="translate(-682 -263) translate(130 210) translate(552 24) translate(0 29)"/>
                    </g>
                </g>
            </g>
        </g>
    </g>
</svg>
