<svg xmlns="http://www.w3.org/2000/svg" xmlns:xlink="http://www.w3.org/1999/xlink" width="153" height="141" viewBox="0 0 153 141">
    <defs>
        <path id="cpth4c67ib" d="M16.43 19.943C23.275 8.99 40.617 3.058 51.114 7.165c10.497 4.107 12.779 5.476 22.819-1.826s26.013-5.932 35.14.913c9.128 6.846 21.45 15.06 20.081 30.577-1.369 15.517-7.302 20.537-2.282 31.49s7.759 23.275 0 34.685c-7.758 11.41-14.147 14.604-33.315 15.517-19.168.912-21.45 11.41-39.705 11.865-18.255.457-38.335-5.476-46.55-24.187-8.215-18.712-9.536-32.86.913-46.55 13.235-17.343 1.373-28.76 8.215-39.706"/>
        <path id="01usoq7pkc" d="M0.303 0.316L131.262 0.316 131.262 130.27 0.303 130.27z"/>
        <filter id="isr4d0loua" width="111.5%" height="111.5%" x="-5.7%" y="-5.8%" filterUnits="objectBoundingBox">
            <feOffset in="SourceAlpha" result="shadowOffsetOuter1"/>
            <feGaussianBlur in="shadowOffsetOuter1" result="shadowBlurOuter1" stdDeviation="2.5"/>
            <feColorMatrix in="shadowBlurOuter1" values="0 0 0 0 0 0 0 0 0 0 0 0 0 0 0 0 0 0 0.0739310738 0"/>
        </filter>
    </defs>
    <g fill="none" fill-rule="evenodd">
        <g>
            <g>
                <g transform="translate(-109 -128) translate(114 133)">
                    <use fill="#000" filter="url(#isr4d0loua)" xlink:href="#cpth4c67ib"/>
                    <use fill="#FFF" xlink:href="#cpth4c67ib"/>
                </g>
                <g>
                    <g transform="translate(-109 -128) translate(114 133) translate(.456 .14)"/>
                    <path fill="#FFF" d="M1.873 42.905C.186 46.288.737 49.988 3.105 51.169c2.368 1.182 5.656-.602 7.344-3.986 1.688-3.383 1.136-7.083-1.232-8.265-2.368-1.181-5.656.604-7.344 3.987M5.933 28.386c0 1.639-1.328 2.967-2.967 2.967C1.328 31.353 0 30.025 0 28.386c0-1.638 1.328-2.966 2.966-2.966 1.639 0 2.967 1.328 2.967 2.966M64.805 5.111c0 1.639-1.328 2.967-2.966 2.967-1.638 0-2.967-1.328-2.967-2.967 0-1.638 1.329-2.966 2.967-2.966 1.638 0 2.966 1.328 2.966 2.966M109.074 130.615c0 1.638-1.328 2.966-2.967 2.966-1.638 0-2.966-1.328-2.966-2.966 0-1.639 1.328-2.967 2.966-2.967 1.639 0 2.967 1.328 2.967 2.967M96.517 124.127c1.509 3.026-1.292 7.484-6.254 9.958-4.963 2.474-10.208 2.027-11.717-1-1.508-3.025 1.292-7.484 6.254-9.958 4.963-2.474 10.209-2.026 11.717 1" transform="translate(-109 -128) translate(114 133)"/>
                    <path fill="#FFB100" d="M135.087 23.823c0 8.443-6.845 15.288-15.288 15.288-8.444 0-15.289-6.845-15.289-15.288 0-8.444 6.845-15.289 15.289-15.289 8.443 0 15.288 6.845 15.288 15.289" transform="translate(-109 -128) translate(114 133)"/>
                    <path fill="#FF0B00" d="M131.893 12.185c2.738-.913 3.194 1.37 3.194 1.37-10.496 15.06-26.47 20.08-27.839 20.536-1.369.457-1.046.432-2.138-.142-.6-.314-.6-.77-.6-2.14 0-1.443 1.826-1.663 1.826-1.663l-.457-1.531-.913-2.282c-2.668 2.818-4.107 5.933-4.107 5.933-.481 1.198-.437 3.467.347 4.572s2.487 1.27 3.776 1.212c1.893-.086 4.332-.692 7.045-1.756 3.896-1.527 8.15-3.895 12.315-6.842 4.157-2.945 7.805-6.177 10.54-9.341 1.908-2.208 3.289-4.3 3.997-6.062.481-1.198.891-2.856.107-3.96-.784-1.106-2.482-1.27-3.776-1.213-1.697.075-3.836.57-6.218 1.444.57.383 2.9 1.865 2.9 1.865" transform="translate(-109 -128) translate(114 133)"/>
                    <path fill="#000" d="M120.299 17.495c-.793 0-1.444.645-1.444 1.444 0 .797.645 1.444 1.444 1.444.793 0 1.444-.645 1.444-1.444 0-.797-.65-1.444-1.444-1.444m0 3.776c-1.287 0-2.335-1.048-2.335-2.336 0-1.287 1.048-2.335 2.335-2.335s2.335 1.048 2.335 2.335c0 1.288-1.046 2.336-2.335 2.336M109.893 23.763c-.454 0-.824.371-.824.824 0 .455.371.823.824.823.455 0 .824-.37.824-.823 0-.454-.371-.824-.824-.824m0 2.539c-.944 0-1.715-.77-1.715-1.715 0-.945.77-1.715 1.715-1.715.945 0 1.715.77 1.715 1.715 0 .945-.766 1.715-1.715 1.715M124.64 33.598c-.454 0-.824.371-.824.824 0 .16.045.317.134.45.152.235.41.373.692.373.454 0 .824-.37.824-.823 0-.353-.224-.668-.557-.78-.09-.031-.18-.044-.269-.044zm0 2.54c-.58 0-1.12-.288-1.438-.78-.183-.282-.282-.603-.282-.936 0-.945.77-1.715 1.715-1.715.192 0 .377.032.556.093.695.235 1.159.886 1.159 1.622.005.947-.765 1.717-1.71 1.717zM117.274 10.785c-.295 0-.535.24-.535.535 0 .294.24.535.535.535.294 0 .535-.24.535-.535 0-.296-.238-.535-.535-.535m0 1.961c-.785 0-1.427-.641-1.427-1.426 0-.784.642-1.426 1.427-1.426.784 0 1.426.642 1.426 1.426 0 .783-.638 1.426-1.426 1.426" transform="translate(-109 -128) translate(114 133)"/>
                    <path fill="#000" d="M120.097 8.486c-3.045 0-6.079.923-8.66 2.754-4.835 3.423-7.202 9.386-6.031 15.192.2.99.499 1.961.896 2.888.42.98.945 1.922 1.566 2.8.264.37.538.727.829 1.069 3.44-.936 8.382-3.544 13.302-7.028 4.92-3.485 9.02-7.278 11.044-10.214-.227-.387-.473-.77-.731-1.138-.62-.877-1.334-1.685-2.118-2.407-.745-.68-1.56-1.287-2.425-1.804-2.367-1.414-5.02-2.112-7.672-2.112zm-11.552 25.648c-.124 0-.25-.054-.335-.152-.378-.428-.734-.877-1.07-1.351-.659-.93-1.215-1.926-1.657-2.963-.42-.984-.74-2.014-.949-3.063-.602-2.974-.338-6.043.758-8.881 1.123-2.91 3.072-5.406 5.63-7.217 2.558-1.81 5.558-2.816 8.678-2.914 3.04-.093 6.026.68 8.629 2.232.918.549 1.782 1.19 2.57 1.91.835.764 1.587 1.618 2.247 2.546.335.468.641.96.917 1.459.08.146.075.324-.017.463-2.024 3.052-6.299 7.042-11.428 10.678-5.13 3.639-10.312 6.343-13.866 7.24-.035.007-.07.012-.107.012zM113.216 36.772c4.948 2.553 10.95 2.157 15.531-1.087 4.582-3.245 6.95-8.775 6.181-14.29-2.7 2.996-6.168 6.018-10.081 8.786-3.911 2.767-7.908 5.034-11.63 6.59v.001zm6.887 2.558c-2.87 0-5.678-.77-8.143-2.243-.147-.089-.232-.249-.215-.418.015-.17.126-.318.283-.378 3.895-1.528 8.15-3.896 12.314-6.842 4.158-2.945 7.805-6.177 10.54-9.342.11-.128.285-.182.449-.14.164.046.289.18.324.343.603 2.974.34 6.044-.757 8.882-1.123 2.91-3.072 5.405-5.63 7.216-2.558 1.81-5.559 2.817-8.678 2.915-.161.007-.327.007-.487.007z" transform="translate(-109 -128) translate(114 133)"/>
                    <path fill="#000" d="M104.741 27.49c-1.613 1.956-2.79 3.805-3.428 5.387-.481 1.198-.891 2.856-.107 3.96.785 1.106 2.487 1.27 3.776 1.213 1.893-.085 4.332-.692 7.045-1.756 3.896-1.528 8.15-3.895 12.315-6.842 4.158-2.945 7.805-6.177 10.54-9.341 1.907-2.207 3.289-4.3 3.997-6.062.481-1.198.891-2.856.107-3.96-.785-1.106-2.482-1.27-3.776-1.213-1.697.075-3.836.57-6.218 1.444.57.383 1.114.808 1.626 1.266 2.192-.562 3.622-.396 4.251.49.624.883.313 2.273-.926 4.14-2.024 3.051-6.299 7.042-11.428 10.677-5.127 3.627-10.31 6.33-13.862 7.228-2.171.549-3.587.378-4.211-.503-.628-.886-.307-2.29.948-4.175-.256-.635-.476-1.29-.649-1.954zm-.216 11.462c-1.934 0-3.294-.539-4.046-1.601-.817-1.15-.811-2.767.009-4.81.745-1.85 2.178-4.032 4.15-6.31.11-.129.285-.182.45-.14.163.045.288.179.324.342.2.99.499 1.962.897 2.889.057.142.044.303-.045.427-1.088 1.578-1.483 2.8-1.091 3.356.374.526 1.565.584 3.266.151 3.45-.87 8.52-3.524 13.567-7.095 5.045-3.574 9.23-7.479 11.194-10.443.972-1.462 1.316-2.603.942-3.134-.392-.556-1.681-.588-3.525-.086-.146.04-.306 0-.419-.101-.745-.682-1.56-1.288-2.424-1.804-.146-.09-.232-.25-.214-.42.018-.17.125-.317.282-.378 2.802-1.101 5.339-1.729 7.33-1.818 2.197-.098 3.726.437 4.542 1.592.817 1.15.812 2.767-.008 4.81-.746 1.85-2.18 4.032-4.15 6.31-2.782 3.224-6.486 6.504-10.7 9.488-4.216 2.986-8.54 5.388-12.5 6.944-2.804 1.102-5.34 1.73-7.331 1.819-.173.006-.337.012-.5.012z" transform="translate(-109 -128) translate(114 133)"/>
                    <path fill="#000" d="M127.71 14.001c-.098 0-.196-.031-.281-.098-.432-.347-.897-.673-1.373-.953-.21-.125-.282-.402-.157-.61.125-.21.4-.282.61-.157.513.307 1.012.65 1.476 1.03.192.157.223.437.067.628-.078.103-.206.16-.342.16M112.175 14.02c-.128 0-.258-.058-.348-.165-.156-.192-.124-.472.068-.627.214-.175.437-.34.66-.5.2-.142.478-.092.62.107.143.2.093.478-.107.62-.21.147-.415.304-.615.464-.082.07-.182.1-.278.1zM108.863 18.16c-.068 0-.134-.014-.196-.044-.223-.107-.312-.375-.205-.597.481-.985 1.091-1.899 1.81-2.728.16-.187.442-.205.627-.044.187.16.205.441.045.627-.664.766-1.23 1.622-1.682 2.535-.078.162-.235.251-.399.251M133.825 4.956h-.669c-.246 0-.445-.2-.445-.446s.2-.446.445-.446h.669c.246 0 .446.2.446.446 0 .244-.2.446-.446.446M130.573 4.956H128.3c-.246 0-.446-.2-.446-.446s.2-.446.446-.446h2.273c.246 0 .446.2.446.446 0 .244-.202.446-.446.446M112.111 42.262h-2.718c-.246 0-.446-.199-.446-.445s.2-.446.446-.446h2.718c.246 0 .446.2.446.446 0 .244-.2.445-.446.445M135.137 38.292c-.246 0-.446-.2-.446-.446v-1.101c0-.246.2-.446.446-.446s.446.2.446.446v1.101c0 .245-.202.446-.446.446M135.137 42.935c-.246 0-.446-.2-.446-.446v-1.102c0-.246.2-.445.446-.445s.446.2.446.445v1.102c0 .246-.202.446-.446.446M138.01 40.06h-1.101c-.246 0-.446-.199-.446-.445s.2-.445.446-.445h1.101c.246 0 .446.199.446.445s-.2.446-.446.446M133.36 40.06h-1.099c-.246 0-.446-.199-.446-.445s.2-.445.446-.445h1.102c.246 0 .445.199.445.445-.001.246-.197.446-.447.446M106.42 9.452c-.115 0-.226-.045-.317-.129l-3.277-3.276c-.174-.175-.174-.455 0-.628.175-.175.455-.175.628 0l3.277 3.277c.174.175.174.455 0 .627-.082.09-.2.129-.31.129" transform="translate(-109 -128) translate(114 133)"/>
                    <path fill="#000" d="M103.144 9.452c-.116 0-.227-.045-.317-.129-.175-.174-.175-.454 0-.627l3.276-3.277c.175-.175.455-.175.627 0 .175.175.175.455 0 .628l-3.276 3.276c-.082.09-.198.129-.31.129" transform="translate(-109 -128) translate(114 133)"/>
                    <path fill="#00B0F0" d="M67.834 95.439c-1.83 0-3.405-.651-4.726-1.952-1.322-1.3-1.983-2.887-1.983-4.757 0-1.83.66-3.396 1.983-4.697 1.32-1.3 2.897-1.951 4.726-1.951 1.81 0 3.38.65 4.712 1.951 1.331 1.301 1.997 2.867 1.997 4.697 0 1.24-.31 2.368-.93 3.385-.62 1.016-1.433 1.825-2.44 2.424-1.006.6-2.119.9-3.339.9zm-5.306-19.03v-.793c.02-3.679.371-6.607 1.052-8.782.68-2.175 1.651-3.929 2.912-5.26 1.26-1.332 2.796-2.557 4.605-3.676 1.24-.771 2.353-1.62 3.34-2.546.985-.924 1.763-1.961 2.333-3.11.568-1.149.853-2.434.853-3.858 0-1.606-.376-2.999-1.128-4.178-.752-1.179-1.764-2.094-3.034-2.744-1.271-.65-2.69-.976-4.254-.976-1.444 0-2.811.31-4.102.93-1.291.62-2.359 1.555-3.202 2.805-.844 1.25-1.317 2.832-1.418 4.742H49.628c.102-3.862 1.042-7.094 2.821-9.697 1.779-2.602 4.137-4.554 7.075-5.855 2.938-1.301 6.185-1.952 9.744-1.952 3.883 0 7.303.681 10.261 2.043 2.958 1.363 5.265 3.299 6.923 5.81 1.656 2.511 2.485 5.484 2.485 8.92 0 2.317-.371 4.391-1.113 6.22-.743 1.83-1.795 3.457-3.156 4.88-1.363 1.423-2.979 2.694-4.849 3.812-1.647 1.017-2.994 2.073-4.04 3.172-1.048 1.097-1.82 2.383-2.318 3.857-.499 1.475-.758 3.289-.778 5.443v.793H62.528z" transform="translate(-109 -128) translate(114 133)"/>
                    <path fill="#FFF" d="M118.201 79.044c0 17.265-13.996 31.262-31.261 31.262-17.266 0-31.262-13.997-31.262-31.262S69.674 47.782 86.94 47.782c17.265 0 31.261 13.997 31.261 31.262" opacity=".599" transform="translate(-109 -128) translate(114 133)"/>
                    <path stroke="#92D050" stroke-width="1.826" d="M118.201 79.044c0 17.265-13.996 31.262-31.261 31.262-17.266 0-31.262-13.997-31.262-31.262S69.674 47.782 86.94 47.782c17.265 0 31.261 13.997 31.261 31.262zM110.144 99.992L119.342 106.883" transform="translate(-109 -128) translate(114 133)"/>
                    <path fill="#FFF" stroke="#92D050" stroke-width="1.826" d="M145.222 128.49h0c-1.431 1.76-4.019 2.026-5.778.595l-19.829-16.124c-1.76-1.432-2.026-4.018-.595-5.779 1.431-1.76 4.018-2.026 5.778-.595l19.828 16.125c1.76 1.431 2.027 4.018.596 5.778z" transform="translate(-109 -128) translate(114 133)"/>
                    <path fill="#FFB100" d="M50.549 112.552l-.173-.016c-.111-.016-.22-.03-.329-.03-.676 0-1.31.398-2.069 1.855-.382.735-.308 1.345.236 1.968.34.387.862.782 1.937.398.34-.12.66-.295.978-.467l.443-.236c1.088-.552 1.54-1.255 1.343-2.088-.17-.716-.576-1.376-2.366-1.384" transform="translate(-109 -128) translate(114 133)"/>
                    <path fill="#002952" d="M25.171 94.161h-.019c-1.148.008-2.119.976-2.121 2.106 0 .563.225 1.101.639 1.512.41.409.944.632 1.51.632.607-.072 1.1-.228 1.511-.65.411-.42.629-.963.618-1.523-.024-1.13-1-2.077-2.138-2.077z" transform="translate(-109 -128) translate(114 133)"/>
                    <path fill="#FFB100" d="M51.542 89.882c-.14-.056-.39-.135-.669-.135-.26 0-.543.069-.78.292-1.764 1.615-2.766 3.419-2.986 5.35-.04.34-.035.72.01 1.138.056.493.34.944.775 1.24.406.274.878.367 1.297.266 2.045-.538 3.767-2.787 3.75-4.912l.009-.554c.008-.337.015-.672-.011-1.003-.064-.695-.634-1.387-1.395-1.682z" transform="translate(-109 -128) translate(114 133)"/>
                    <path fill="#002952" d="M28.885 105.594h-.01c-.271 0-.534.108-.73.305-.204.201-.313.459-.313.732 0 .273.111.533.31.73.204.201.597.283.748.305h.003c.273 0 .535-.117.734-.321.2-.205.303-.467.298-.735-.01-.544-.488-1.01-1.04-1.016" transform="translate(-109 -128) translate(114 133)"/>
                    <path fill="#002952" d="M38.436 97.252c-.292.082-.589.124-.884.124-.684 0-1.355-.22-1.925-.648-.86-.644-1.358-1.654-1.366-2.768.03-.337.053-.608.164-.897.223-.583.881-.878 1.462-.647.583.223.875.88.65 1.461-.011.47.156.825.448 1.043.143.108.448.281.833.161.607-.174 1.228.178 1.4.775.168.594-.18 1.223-.782 1.396zm1.655 5.116c0 .414-.334.748-.748.748s-.748-.334-.748-.748.334-.748.748-.748.748.334.748.748zm-2.928 9.433c-.414 0-.748-.334-.748-.748s.334-.748.748-.748c.413 0 .748.334.748.748-.003.414-.337.748-.748.748zm-5.916-2.878c-.626.647-1.456 1.003-2.342 1.01h-.029c-.878 0-1.703-.342-2.331-.962-.632-.629-.98-1.457-.982-2.34 0-.88.348-1.708.984-2.339.636-.632 1.44-.966 2.361-.966 1.77.024 3.236 1.475 3.276 3.236.024.88-.31 1.72-.937 2.36zm-6.072-8.247c-1.164 0-2.265-.459-3.103-1.292-.84-.838-1.305-1.944-1.305-3.114 0-2.345 2-4.348 4.364-4.371h.042c2.38 0 4.348 1.915 4.4 4.289.025 1.156-.434 2.305-1.26 3.151-.835.857-1.938 1.332-3.106 1.34-.01-.003-.018-.003-.032-.003zm-3.185 13.37h-.024c-.626-.014-1.12-.534-1.109-1.154.008-.385-.15-.645-.512-.85-.472-.272-.785-.15-1.008-.015-.533.32-1.23.159-1.557-.38-.326-.533-.159-1.23.377-1.557 1.037-.634 2.212-.641 3.302-.026 1.08.613 1.687 1.655 1.66 2.867-.01.62-.514 1.114-1.13 1.114zm6.448-26.906c.414 0 .748.334.748.748s-.334.748-.748.748c-.413 0-.748-.334-.748-.748.003-.411.335-.748.748-.748zM16.08 90.09c-.414 0-.748-.334-.748-.748s.334-.748.748-.748.748.334.748.748c0 .416-.334.748-.748.748zm-.748 11.536c-.414 0-.748-.334-.748-.749 0-.413.334-.747.748-.747s.748.334.748.747c0 .415-.334.749-.748.749zm-2.244-8.172c-.324.1-.65.156-.98.156-.67 0-1.33-.215-1.9-.637-.882-.647-1.401-1.705-1.388-2.83.04-.356.074-.607.175-.873.22-.589.873-.883 1.46-.66.585.217.88.875.66 1.456-.003.024-.048.284-.051.302.016.2.186.557.485.777.151.109.459.279.844.146.6-.183 1.236.138 1.427.73.191.6-.138 1.236-.732 1.432zm22.844-4.91c-3.114-2.043-5.894-4.582-8.472-7.011-1.72-1.618-3.852-2.658-6.13-3.06-.011.102-.014.208-.053.309-.014.477.156.835.445 1.05.143.109.448.273.83.16.6-.18 1.226.174 1.398.774.173.6-.172 1.228-.772 1.403-.294.082-.594.123-.888.123-.682 0-1.356-.22-1.92-.648-.863-.644-1.364-1.65-1.372-2.77.019-.22.066-.402.108-.593-.5.005-1 .031-1.501.1-5.302.698-9.522 4.886-10.268 10.181-.273 1.947-.093 3.85.536 5.66 1.226 3.526 1.82 7.316 2.345 10.658.159 1.006.425 2.02.788 3.009 2.504 6.79 8.841 11.358 15.774 11.358h.133c1.668-.029 3.273-.305 4.788-.783-.422-.575-.705-1.27-.71-2.042.031-.347.055-.612.166-.896.226-.584.884-.878 1.462-.647.583.222.875.88.65 1.46-.008.672.366 1.065.764 1.187 5.602-2.74 9.454-8.454 9.454-14.998 0-5.653-2.825-10.879-7.555-13.985z" transform="translate(-109 -128) translate(114 133)"/>
                    <path fill="#FFB100" d="M18.975 70.296l.427.157c.695.252 1.414.511 2.125.946.156.102.49.298 1.116-.182.711-.55 1.412-1.117 2.112-1.682l.464-.377c1.602-1.294 1.493-2.355 1.22-3.138-.353-1.005-1.01-1.68-3.061-1.682l-.045-.002c-.114-.005-.223-.008-.33-.008-.604-.003-1.092.093-1.455.435l-.302.278c-1.004.934-2.038 1.9-2.929 2.924-.427.493-.38 1.01-.31 1.275.121.489.477.876.968 1.056zM41.946 123.228c0 1.626-2.437 1.626-2.437 0s2.437-1.626 2.437 0M63.413 110.584c-.673 0-1.22.546-1.22 1.22 0 .674.547 1.22 1.22 1.22.674 0 1.22-.546 1.22-1.22 0-.677-.546-1.22-1.22-1.22M4.266 72.442c0-.674-.546-1.22-1.22-1.22-.674 0-1.22.546-1.22 1.22 0 .674.546 1.22 1.22 1.22.674-.003 1.22-.549 1.22-1.22M37.827 83.058c0 1.626-2.438 1.626-2.438 0s2.438-1.626 2.438 0M6.08 98.018c0 1.626-2.437 1.626-2.437 0s2.438-1.626 2.438 0M35.87 60.31c0 1.625-2.439 1.625-2.439 0 0-1.627 2.438-1.627 2.438 0" transform="translate(-109 -128) translate(114 133)"/>
                    <path fill="#00B0E5" d="M52.483 22.428h-2.157c-.927 0-1.807.27-2.56.79l-1.806 1.155c-1.261.884-2.03 2.305-2.03 3.826 0 1.812-.816 3.465-2.23 4.53l-2.916 2.226c-1.192.853-1.902 2.263-1.902 3.715v2.85c8.691-2.187 15.178-9.835 15.601-19.092z" transform="translate(-109 -128) translate(114 133)"/>
                    <path fill="#00B0E5" d="M39.404 28.193c0-2.962 1.51-5.791 4.032-7.577l1.834-1.171c1.447-.997 3.217-1.542 5.06-1.542h1.893c-.811-4.59-3.132-8.633-6.439-11.648l-.98 1.462c-1.834 2.745-4.902 4.393-8.203 4.393-4.054 0-7.647-2.437-9.152-6.2l-1.643-4.117c-4.933 1.526-9.056 4.8-11.653 9.152l2.485 2.485h2.767c3.672 0 6.66 2.983 6.66 6.66v5.31c0 3.207-2.278 5.888-5.309 6.519v.53c0 1.897-.853 3.577-2.146 4.801 3.609 3.042 8.198 4.944 13.275 4.944.164 0 .318-.047.482-.053l-.01-3.476c0-2.93 1.393-5.676 3.735-7.355l2.878-2.2c.36-.26.434-.646.434-.917z" transform="translate(-109 -128) translate(114 133)"/>
                    <path fill="#00B0E5" d="M41.03 5.21l1.076-1.611C39.075 1.855 35.61.785 31.868.785c-.524 0-1.023.117-1.542.159l1.32 3.296c1.478 3.688 7.175 4.271 9.385.97zM21.53 25.4v-5.31c0-1.197-.944-2.13-2.136-2.13h-3.355c-.932 0-1.76-.482-2.21-.933l-1.642-1.642c-.604 1.945-1.023 3.964-1.023 6.104 0 4.722 1.643 9.02 4.314 12.501.43-.386.752-.895.752-1.542v-1.743c0-1.755 1.42-3.174 3.17-3.174 1.186 0 2.13-.933 2.13-2.13" transform="translate(-109 -128) translate(114 133)"/>
                </g>
            </g>
        </g>
    </g>
</svg>
