<?xml version="1.0" encoding="UTF-8"?>
<svg width="46px" height="54px" viewBox="0 0 46 54" version="1.1" xmlns="http://www.w3.org/2000/svg" xmlns:xlink="http://www.w3.org/1999/xlink">
    <title>Excel. icon</title>
    <defs>
        <linearGradient x1="50%" y1="0%" x2="50%" y2="100%" id="linearGradient-1">
            <stop stop-color="#3CC020" offset="0%"></stop>
            <stop stop-color="#32701C" offset="100%"></stop>
        </linearGradient>
    </defs>
    <g id="Teams" stroke="none" stroke-width="1" fill="none" fill-rule="evenodd">
        <g id="Excel.-icon">
            <g id="Group">
                <path d="M0,1 L36,1 C41.5228475,1 46,5.4771525 46,11 L46,52 C46,53.1045695 45.1045695,54 44,54 L2,54 C0.8954305,54 1.3527075e-16,53.1045695 0,52" id="Rectangle" fill="url(#linearGradient-1)"></path>
                <g id="Triangle"></g>
            </g>
            <text id="X" font-family="Inter-Medium, Inter" font-size="20" font-weight="400" fill="#FFFFFF">
                <tspan x="16.3380682" y="20">X</tspan>
            </text>
            <path d="M31,1 L36,1 C41.5228475,1 46,5.4771525 46,11 L46,17 L46,17 L34,17 C32.3431458,17 31,15.6568542 31,14 L31,1 L31,1 Z" id="Rectangle" fill="#A0F4BC"></path>
        </g>
    </g>
</svg>