<svg xmlns="http://www.w3.org/2000/svg" width="36" height="36" viewBox="0 0 36 36">
    <defs>
        <filter id="s9qi4acqpa">
            <feColorMatrix in="SourceGraphic" values="0 0 0 0 1.000000 0 0 0 0 1.000000 0 0 0 0 1.000000 0 0 0 1.000000 0"/>
        </filter>
    </defs>
    <g fill="none" fill-rule="evenodd">
        <g>
            <g filter="url(#s9qi4acqpa)" transform="translate(-169 -723) translate(0 708)">
                <g>
                    <path fill="#00B0F0" fill-rule="nonzero" d="M18 0c4.808 0 9.328 1.872 12.728 5.272C34.128 8.672 36 13.192 36 18s-1.872 9.328-5.272 12.728C27.328 34.128 22.808 36 18 36s-9.328-1.872-12.728-5.272C1.873 27.328 0 22.808 0 18S1.874 8.672 5.272 5.272C8.672 1.872 13.192 0 18 0zm3.078 1.733c-.07-.016-.1.023-.069.087l.058.11c.031.064.108.145.17.18l.24.138c.062.036.07.105.018.155l-.145.138c-.052.05-.152.084-.223.076l-.286-.03c-.072-.007-.178.02-.24.058l-.092.06c-.059.04-.117.13-.13.2l-.013.084c-.013.07-.08.13-.152.13l-.236.004c-.072.002-.184.02-.253.044l-.192.064c-.067.024-.175.07-.236.106l-.261.149c-.063.036-.17.06-.242.058l-.236-.011c-.072-.005-.183.014-.25.04l-.213.085c-.067.026-.178.034-.248.018l-.29-.065c-.073-.014-.177-.06-.237-.1l-.051-.035c-.06-.039-.163-.095-.228-.121l-.514-.218-.22-.084c-.068-.025-.102.01-.079.077l.119.332.094.314c.018.07-.005.166-.057.218l-.18.18c-.052.052-.124.142-.163.202l-.152.236c-.039.06-.122.135-.186.17l-.345.179c-.064.033-.156.101-.206.153l-.136.139c-.05.052-.143.12-.207.155l-.168.089c-.064.033-.174.056-.246.05l-.325-.028c-.07-.007-.18.017-.242.051l-.317.175c-.063.035-.172.063-.244.063h-.358c-.071 0-.18.028-.242.064l-.131.075c-.063.034-.167.081-.236.104l-.216.072c-.067.024-.157.088-.201.146l-.045.06c-.044.057-.12.144-.172.194l-.107.103c-.051.049-.143.061-.206.027l-.18-.1c-.062-.036-.1-.12-.084-.19l.022-.096c.016-.07.062-.173.105-.233l.207-.292.154-.219c.042-.059.115-.148.164-.201l.098-.103c.05-.053.138-.127.197-.168l.558-.375.284-.156c.063-.034.155-.104.206-.154l.282-.282.347-.29c.054-.046.151-.108.217-.14l.122-.057c.065-.031.075-.096.02-.142-.055-.047-.066-.132-.025-.188.04-.056.13-.116.198-.134l.205-.055c.07-.019.072-.056.006-.084l-.297-.127c-.067-.028-.168-.019-.23.02l-.118.077-.173.103c-.061.038-.157.031-.213-.014l-.098-.08c-.057-.045-.12-.037-.146.016l-.045.097-.122.248c-.031.066-.086.16-.122.211-.034.052-.01.119.053.15l.02.01c.063.03.079.101.035.157l-.098.122c-.046.057-.132.13-.194.167l-.383.227-.445.308c-.058.042-.161.095-.228.12l-.277.103c-.067.025-.18.05-.252.057l-.139.01c-.071.007-.184.033-.25.061l-.245.105-.18.074c-.067.026-.103-.007-.08-.075l.074-.241c.022-.069.081-.164.133-.214l.122-.12c.051-.05.126-.138.169-.196l.018-.025c.044-.058.06-.16.038-.228-.024-.073-.081-.103-.13-.072-.05.033-.144.056-.21.053-.068-.001-.098-.056-.065-.12l.086-.173c.033-.064 0-.114-.072-.113l-.073.002c-.072.001-.186.015-.256.03l-.136.027c-.07.015-.174.063-.23.107l-.336.26-.513.423-.439.406-.52.458c-.055.046-.136.13-.181.185l-.199.24c-.045.054-.025.1.047.1h.107c.071 0 .176-.033.235-.075l.504-.354c.057-.04.159-.1.223-.13l.156-.076c.064-.031.163-.09.22-.134l.522-.392.311-.238c.058-.042.157-.078.222-.078.064 0 .097.055.072.122l-.064.17c-.025.067-.084.164-.134.216l-.35.369-.199.193c-.051.05-.037.077.033.061l.381-.087c.07-.016.122.028.116.1L9.9 5.72c-.006.072-.053.169-.106.219-.135.123-.363.334-.385.358-.025.023-.2.383-.293.573-.03.066-.1.156-.153.203l-.204.178c-.053.047-.123.138-.156.202l-.194.38-.275.542c-.032.062-.05.172-.04.244.01.082.023.176.023.195 0 .022-.21.072-.351.103-.07.016-.168-.016-.216-.067l-.205-.217c-.048-.053-.072-.15-.05-.22l.07-.222c.02-.07.091-.143.16-.166l.233-.078c.067-.024.156-.09.198-.147l.075-.106c.042-.058.027-.135-.036-.17l-.18-.107-.202-.114c-.063-.034-.17-.073-.243-.084l-.142-.024c-.07-.012-.128.033-.128.1s.052.149.116.18l.026.014c.064.031.075.098.027.152l-.138.145c-.048.051-.145.11-.214.131l-.051.016c-.068.02-.118.093-.11.165l.011.099c.008.072.035.18.058.242.019.052.038.102.038.114 0 .017-.361.06-.561.083-.07.01-.136-.042-.146-.114l-.015-.116c-.01-.07-.072-.112-.141-.089-.105.034-.24.084-.25.114-.006.017-.031.06-.063.11l-.067.1c-.04.059-.132.107-.204.107H5.31c-.072 0-.181.027-.244.063-.153.087-.406.236-.406.27 0 .049-.308.203-.308.236 0 .022-.18.216-.292.336-.048.052-.14.125-.2.163l-.136.082c-.06.038-.166.074-.236.08-.069.006-.153.063-.187.127-.302.557-.572 1.135-.81 1.73-.025.065-.031.176-.01.245l.052.185c.02.07.036.183.036.255v.27c0 .072-.017.185-.039.254l-.075.239c-.022.068-.076.08-.125.026l-.087-.098c-.049-.053-.077-.155-.064-.225l.086-.49.022-.095c.014-.053.003-.04-.02.027-.13.366-.248.737-.353 1.114l.023.032.073.172c.034.079.16.171.276.207l.105.032c.12.036.261.124.321.197l.1.12c.06.073.088.188.068.256-.023.07-.023.191-.003.271l.082.313c.023.08.04.213.04.295l-.003.04c0 .082-.031.213-.068.291l-.142.31c-.037.078-.122.198-.19.268l-.106.107c-.068.07-.11.061-.093-.021l.088-.412.074-.447c.014-.08-.032-.203-.103-.273l-.258-.258c-.071-.07-.173-.186-.23-.259-.034-.047-.074-.098-.105-.147-.054-.075-.108-.204-.168-.277l.011.019c-.089.401-.163.807-.223 1.219-.01.072.013.178.05.239l.325.515c.038.061.086.166.107.235l.287.98s.217.954.217 1.018c0 .04.099.161.174.249.047.054.115.148.15.21l.394.705c.035.064.078.17.093.24l.188.784.062.326c.014.07.052.18.086.242l.225.42c.033.065.102.157.15.21l.58.613c.048.051.139.125.198.164l.453.292c.06.039.147.114.194.169l.349.4.434.487c.047.053.094.153.105.225l.136.935c.01.07-.02.171-.064.228l-.268.32c-.045.055-.08.158-.08.23l.02.843.054.738c.006.072-.037.162-.097.205l-.156.11c-.058.043-.158.05-.223.02l-.133-.062c-.064-.03-.158-.014-.205.041-.05.055-.108.123-.15.181-.04.058.005.144.056.194.07.069.16.163.225.234.049.054.099.154.11.225l.045.258c.013.072.061.172.11.225 3.053 3.343 7.443 5.441 12.315 5.441 9.202 0 16.686-7.484 16.672-16.674 0-1.27-.142-2.506-.413-3.695-.015-.07-.037-.125-.046-.122-.011.003-.05-.044-.09-.104l-.64-1.016c-.038-.061-.086-.055-.106.014l-.143.487c-.02.07-.018.18.005.249.078.236.24.736.24.786 0 .053-.1.923-.137 1.258-.01.071.02.175.063.232.122.168.337.479.29.525-.054.054.147 1.232.216 1.627.012.07-.022.089-.077.044l-.212-.18c-.055-.047-.117-.139-.14-.208l-.244-.77c-.02-.067-.07-.174-.105-.236l-.475-.816c-.036-.062-.088-.167-.114-.232l-.25-.625c-.027-.068-.063-.177-.081-.247l-.13-.507c-.019-.068-.069-.08-.113-.023-.101.133-.265.352-.265.395 0 .047-.333.103-.522.133-.07.01-.172-.02-.225-.069l-.219-.195c-.053-.048-.148-.06-.21-.025l-.488.266c-.063.034-.172.065-.244.072l-.672.046c-.072.007-.177.044-.234.086l-.01.007c-.058.042-.16.062-.231.046l-.112-.026c-.07-.016-.175-.061-.236-.1l-.129-.084-.118-.082c-.06-.04-.142-.12-.185-.178l-.07-.095c-.042-.058-.131-.127-.197-.155l-.031-.012c-.066-.027-.12.009-.12.08v.26c0 .072.037.174.082.23l.425.514c.046.055.133.075.196.044.064-.031.172-.046.242-.035l.06.01c.071.01.118.078.104.148l-.016.081c-.012.072.033.118.103.104l.091-.02c.07-.013.156-.076.194-.137l.037-.06c.038-.062.093-.165.12-.23l.026-.055c.03-.066.092-.077.139-.022l.018.02c.047.054.138.125.2.16l.054.028c.062.034.139.019.171-.036.032-.053.111-.073.177-.045l.216.092c.067.028.118.11.115.181-.006.188-.017.517-.017.564 0 .026-.014.247-.03.502l-.018.26-.03.446c-.006.072-.05.17-.102.222l-.487.492c-.052.05-.13.138-.174.194l-.423.533c-.045.054-.136.12-.203.143l-.7.24-.445.153c-.068.023-.154-.008-.191-.07l-.381-.624-.407-.628c-.039-.061-.117-.146-.173-.19l-.336-.257c-.056-.044-.103-.138-.103-.21v-.256c0-.072-.05-.16-.111-.198l-.375-.231c-.06-.038-.148-.113-.194-.168l-.492-.58c-.047-.056-.14-.109-.212-.12l-.177-.026c-.07-.011-.103.033-.073.098l.303.652c.03.065.095.158.148.208l.267.253c.052.048.122.14.158.203l.1.18c.035.062.081.168.103.237l.061.19c.022.07.066.177.102.238.042.074.097.156.133.167.043.014.221.163.336.261.056.047.128.135.165.196l.128.21c.038.062.103.157.147.215l.142.184c.044.058.138.103.21.103h.043c.072 0 .161.05.2.11l.165.257c.037.061.115.144.173.188l.052.039c.057.044.159.06.228.039l.098-.031c.069-.022.177-.066.24-.1l.42-.225c.062-.033.168-.078.237-.102l.414-.136c.069-.023.116.017.105.088l-.1.651-.192 1.042c-.015.07-.047.182-.074.249l-.184.453c-.027.067-.085.167-.128.223l-.355.461s-.54.736-.628.866c-.063.095-.322.41-.458.572-.045.055-.111.15-.145.212-.094.174-.263.49-.263.536 0 .064-.044.778-.044.866 0 .056.029.272.047.412.01.072.016.188.014.26l-.014.542c-.001.073-.02.187-.039.256l-.125.442c-.019.07-.086.154-.148.19l-.358.198c-.06.034-.158.1-.213.145l-.514.42c-.054.046-.112.14-.126.21l-.077.373c-.014.07-.058.177-.095.238l-.23.364c-.037.06-.114.147-.168.194l-.343.287c-.054.047-.134.13-.178.188l-.34.442c-.044.056-.125.137-.183.181l-.42.32c-.058.044-.155.107-.22.141l-.334.18c-.062.034-.172.067-.243.075l-.672.062c-.072.007-.186.028-.255.049l-.422.123c-.069.02-.183.036-.255.036h-.239c-.071 0-.13-.058-.13-.13v-.13c0-.071-.026-.18-.057-.246l-.21-.417c-.032-.064-.103-.152-.159-.197l-.122-.099c-.056-.045-.101-.139-.101-.21v-.455c0-.07-.04-.172-.086-.227l-.26-.292-.375-.483c-.043-.058-.08-.16-.08-.233v-.259c0-.072.023-.184.05-.25l.182-.431c.026-.066.084-.167.128-.224l.103-.139c.044-.056.092-.16.11-.23l.045-.18c.017-.07-.003-.171-.047-.229l-.058-.075c-.044-.056-.103-.156-.131-.222l-.069-.153c-.03-.065-.053-.176-.053-.248v-.347c0-.072-.042-.17-.095-.219l-.328-.301c-.053-.049-.135-.132-.18-.186l-.46-.54c-.045-.054-.045-.128.004-.164.048-.035.115-.115.151-.178l.132-.23c.035-.062.076-.17.09-.24l.036-.178c.014-.07-.017-.166-.072-.213l-.151-.13c-.055-.05-.157-.096-.227-.107l-.155-.025c-.07-.011-.184-.008-.254.008l-.353.075c-.07.015-.166-.016-.214-.069l-.216-.24c-.049-.054-.131-.135-.188-.18l-.189-.158c-.054-.047-.156-.072-.226-.056l-.547.118c-.07.016-.178.057-.24.091l-.359.2c-.062.034-.17.052-.24.037l-.613-.121c-.068-.016-.182-.013-.253.003l-.504.114c-.07.015-.177-.002-.238-.04l-.45-.274c-.06-.04-.153-.108-.205-.158l-.459-.428c-.052-.049-.122-.14-.156-.203l-.332-.616c-.034-.062-.1-.16-.145-.214l-.526-.625c-.046-.055-.066-.155-.043-.223l.049-.149c.023-.067.014-.175-.022-.237-.04-.07-.042-.174-.01-.238l.13-.27c.032-.064.072-.174.09-.242l.073-.27c.019-.07.023-.182.012-.254l-.014-.076c-.01-.07.003-.18.031-.243.03-.062.027-.165-.007-.228l-.058-.11c-.035-.065-.036-.17-.006-.233l.048-.133c.031-.066.095-.161.144-.214l.295-.32c.049-.054.105-.152.127-.221l.036-.117c.021-.069.087-.155.148-.194l.172-.11c.06-.038.142-.12.181-.179l.085-.125c.039-.06.128-.116.2-.125l.1-.014c.071-.01.173-.053.23-.098l.268-.22c.056-.046.102-.14.102-.212v-.162c0-.072.037-.174.084-.228l.17-.194c.047-.053.14-.12.205-.149l.16-.068c.066-.028.159-.096.206-.149l.275-.31c.046-.054.14-.079.209-.057l.078.025c.069.024.181.049.253.058l.238.031c.07.01.182-.001.251-.025l.372-.128.56-.192c.068-.024.18-.042.253-.042h1c.071 0 .187-.011.257-.027l.274-.06c.07-.015.178 0 .244.03l-.044-.014c.044-.114.103-.216.17-.286.127-.13.282-.113.385.026l.15-.083c.062-.035.168-.083.235-.108l.09-.033c.067-.025.125-.103.128-.175l.004-.13c.003-.072-.045-.16-.107-.193l-.075-.043c-.063-.036-.161-.098-.22-.14l-.227-.167-.17-.15c-.054-.047-.15-.111-.215-.143l-.065-.032c-.064-.032-.144-.11-.175-.174l-.047-.092c-.033-.064-.111-.09-.175-.06l-.347.17-.19.12c-.06.037-.162.042-.226.009l-.167-.086c-.064-.033-.169-.04-.233-.019-.065.024-.12.099-.122.17l-.001.074c-.002.072-.042.175-.088.23l-.051.06c-.046.055-.14.115-.208.135l-.156.044c-.069.019-.174.065-.235.104-.09.06-.206.138-.206.158 0 .02.064.178.111.294.027.066.01.161-.04.213l-.179.182-.237.213c-.053.048-.144.055-.205.015l-.017-.012c-.061-.04-.166-.058-.236-.042l-.105.023c-.07.016-.178-.001-.239-.037l-.119-.07c-.06-.038-.165-.09-.23-.118l-.168-.07c-.066-.028-.116-.108-.11-.18l.005-.114c.005-.072-.039-.156-.097-.19-.057-.035-.073-.11-.032-.17l.073-.109c.04-.059.122-.137.183-.176l.039-.025c.06-.038.097-.125.08-.195l-.044-.186c-.017-.07.001-.175.04-.236l.143-.22c.04-.062.115-.1.168-.087l.097.025.27.05-.002-.012c-.014-.096-.027-.201-.034-.253L15 11.57c-.002-.024.066-.068.136-.107.084-.047.157-.12.157-.171v-.093c0-.058.17-.329.194-.353.005-.005.018-.012.037-.02l-.016-.024c-.045-.056-.025-.118.044-.139l.403-.117.033-.011c.023-.013.05-.022.078-.028l.318-.108.429-.145c.013-.005.027-.01.042-.018-.004-.087-.001-.189-.006-.228-.003-.031-.033-.113-.07-.186-.037-.09-.066-.245-.06-.346v-.016c.005-.102.066-.232.134-.291l.143-.122c.07-.06.157-.062.196-.004.038.06.13.141.207.187l.04.025c.076.044.115.134.083.2l.005-.018.039-.014.314-.072c.07-.017.126-.088.125-.16l-.003-.162c0-.07.012-.186.03-.255l.048-.18c.018-.068.089-.11.16-.093l.04.01c.07.016.123.088.118.157-.004.07-.004.184-.001.256l.003.049c.003.072.061.147.13.17l.193.064.254.105c.067.028.173.023.236-.011l.275-.145c.062-.035.165-.035.228 0l.072.039c.064.034.142.01.175-.053l.1-.193c.032-.064.045-.172.028-.242l-.027-.112c-.017-.07-.005-.155.03-.191.033-.036.114-.04.178-.01l.042.02c.064.03.117-.002.117-.074v-.13c0-.072-.017-.186-.039-.254l-.003-.011c-.022-.068.019-.124.09-.124l.243.002h.117c.064 0 .114-.04.11-.086-.005-.047-.05-.125-.102-.175l-.025-.024c-.05-.05-.15-.082-.222-.073l-.108.014c-.07.01-.186.016-.258.014l-.048-.001c-.07-.002-.181-.03-.245-.061l-.093-.047c-.064-.032-.12-.116-.128-.188v-.01c-.006-.07.027-.171.074-.226l.048-.056c.047-.055.064-.153.04-.22l-.023-.058c-.026-.067-.101-.105-.168-.084-.068.02-.155.084-.197.142-.088.122-.217.31-.217.325l-.01.267c-.003.072.016.184.042.25l.074.181c.026.067.02.17-.016.233l-.065.116c-.035.062-.05.17-.036.24.025.117.056.28.045.311-.011.031-.186.133-.308.199-.062.034-.16.026-.217-.018l-.07-.053c-.057-.043-.122-.134-.147-.201l-.05-.138c-.025-.069-.077-.17-.117-.228-.041-.06-.129-.089-.197-.069l-.207.063c-.068.02-.18.02-.248-.002l-.117-.036c-.069-.022-.122-.097-.12-.168l.007-.229c.003-.071.028-.182.058-.248l.056-.128c.03-.066.105-.145.17-.178l.118-.06c.064-.032.147-.107.186-.168l.072-.113c.039-.06.108-.155.153-.21l.16-.19c.045-.055.091-.156.102-.228l.01-.06c.006-.043.027-.098.054-.145-.033.003-.065-.014-.088-.05-.053-.082-.19-.2-.31-.27-.116-.066-.24-.14-.254-.164-.03-.04.047-.364.075-.61.016-.133.199-.152.356-.14.127.011.307-.055.401-.169.094-.11.26-.129.37-.035l.045.035c.11.09.152.211.097.266-.056.059-.036.16.047.23.08.071.124.24.09.38l.005-.042.04-.01c.027-.164.061-.37.073-.463l.004-.046c0-.028.178-.107.374-.187l.198-.077.093-.035c.13-.053.332 0 .453.117l.185.176c.119.111.116.287-.008.38l-.231.182-.01.008.02.004.22.056c.07.017.177.061.238.097l.156.09c.065.037.111.123.107.195l-.002.017c-.005.072-.064.139-.136.148l-.254.036c-.07.01-.09.06-.038.111l.103.106c.05.052.147.11.216.13l.189.056c.069.02.136-.02.148-.09l.01-.046c.014-.07.053-.178.089-.24l.048-.085c.025-.043.076-.083.128-.103-.036-.01-.069-.025-.095-.04-.076-.047-.154-.096-.154-.112 0-.012-.045-.051-.1-.096l-.117-.09c-.037-.03-.07-.055-.087-.07-.059-.053-.08-.142-.09-.203-.008-.06-.204-.166-.257-.304-.02-.056.01-.106.048-.144l.005-.005c-.027-.096-.077-.245-.052-.288.017-.024.1-.06.182-.093.045-.015.1-.014.157 0l.014-.006c.067-.02.16.023.203.093l.039.064.011.019.14.145.377.327.156.114c.03.023.06.055.089.093l.017-.013c.056-.044.158-.094.228-.111l.153-.036c.07-.017.12-.072.111-.12-.009-.05-.07-.111-.137-.136l-.122-.046c-.067-.025-.064-.057.006-.07l.264-.05c.07-.012.185-.012.257.002l.33.064c.07.014.085-.016.034-.066l-.205-.2c-.052-.05-.125-.14-.164-.2l-.15-.228c-.04-.061-.116-.147-.172-.192l-.156-.128c-.056-.046-.127-.136-.156-.2l-.118-.252c-.03-.064-.107-.14-.173-.17l-.144-.064c-.065-.03-.162-.091-.219-.136l-.173-.142c-.056-.046-.044-.096.027-.111l.428-.097c.07-.016.182-.014.253.004l.089.024c.07.019.139-.024.153-.094l.02-.095c.014-.07-.017-.166-.07-.214l-.06-.053c-.054-.049-.15-.111-.215-.141l-.234-.105c-.066-.03-.175-.065-.246-.081zm9.905 23.828c.075-.083.185-.082.251.006l.151.204c.061.086.115.235.115.331 0 .096-.046.244-.105.334l-.273.417-.166.218c-.066.087-.205.214-.31.285l-.093.061c-.105.071-.241.2-.307.287l-.193.262c-.066.086-.14.233-.166.327l-.093.323c-.027.093-.132.227-.239.298l-.495.335-.64.433-.358.2c-.115.066-.337.118-.493.118h-.286c-.156 0-.283-.077-.283-.172v-.289c0-.088.237-.317.378-.433.09-.074.376-.28.571-.418.103-.071.144-.203.1-.295-.046-.088-.1-.2-.141-.3-.04-.093-.069-.252.014-.334.152-.152.486-.293.591-.357.053-.033.216-.12.399-.216l.222-.115.204-.106c.12-.061.295-.173.393-.247l.546-.422c.098-.076.237-.204.313-.289zM18.96 11.567c-.055-.022-.095.017-.09.09l.009.154c.004.072.05.169.103.217l.173.158c.053.048.128.136.17.195l.041.061c.04.06.13.113.202.119l.01.001c.071.008.179.041.241.077l.116.066c.062.034.142.114.178.176l.049.085c.035.062.026.156-.022.209l-.149.164-.244.308-.121.176c-.041.06-.132.097-.202.083l-.078-.015c-.07-.015-.181-.049-.247-.077l-.034-.016.018.048c.076.221.082.515.023.71l-.034.087c-.094.182-.282.334-.416.334l.04-.007c.054.027.117.05.166.056l.32.05c.072.011.183.041.25.068l.131.051c.067.027.149.099.183.161.039.072.125.131.197.144l.28.047c.07.01.176.051.237.09l.025.016c.06.04.166.053.234.031l.093-.028c.068-.02.093-.086.054-.147l-.006-.01c-.04-.06-.058-.165-.042-.235l.008-.04c.015-.07.084-.141.154-.16l.14-.038c.068-.018.182-.03.254-.025l.075.007c.072.004.144.039.163.078.017.037.089.075.16.083l.383.042.658.048h.236c.072 0 .181-.028.244-.064l.204-.115c.063-.036.17-.05.24-.033l.284.069c.069.017.147-.024.172-.091l.069-.178.092-.299c.022-.068.028-.182.015-.253l-.057-.326-.032-.341-.008-.094c-.003-.051-.075-.093-.157-.093-.083 0-.22.054-.303.121l-.02.016c-.085.066-.23.105-.327.084l-.175-.036-.086-.015c-.047-.01-.097.022-.11.069l-.019.037c-.027.04-.075.08-.123.103l-.025.011c-.064.031-.14.027-.17-.01-.03-.035-.108-.084-.175-.109l-.049-.017c-.067-.023-.157-.09-.201-.147l-.061-.078c-.044-.058-.106-.154-.14-.219l-.026-.053c-.033-.064-.068-.17-.08-.237-.01-.067-.056-.167-.101-.224l-.025-.032c-.044-.057-.125-.102-.181-.102-.056 0-.155.023-.22.052l-.046.02c-.065.028-.144.095-.175.148-.033.055-.034.136-.005.183.029.047.07.127.09.178.018.052.08.13.137.175l.044.038c.056.045.044.084-.028.089l-.025.001c-.072.004-.14.061-.15.125-.011.066-.077.108-.149.096l-.069-.013c-.07-.012-.159-.072-.2-.131l-.082-.125c-.04-.061-.111-.152-.161-.203l-.113-.12c-.05-.054-.106-.152-.125-.22l-.026-.1c-.02-.07-.032-.177-.027-.243.005-.066-.047-.139-.112-.166l-.254-.1c-.067-.026-.17-.08-.23-.118l-.224-.147-.41-.333c-.056-.045-.143-.098-.198-.122zm-5.378-5.502c.044-.079.155-.086.244-.021l.03.021c.089.065.237.101.335.076l.17-.043c.097-.025.245.014.332.09l.036.032c.09.073.198.238.247.368.048.13.019.296-.068.371l-.316.278-.223.151c-.09.062-.242.112-.34.112h-.12c-.098 0-.23-.09-.293-.195-.064-.111-.117-.324-.117-.479v-.45c0-.094.036-.231.083-.31z" transform="translate(169 15)"/>
                </g>
            </g>
        </g>
    </g>
</svg>
