<svg xmlns="http://www.w3.org/2000/svg" width="24" height="24" viewBox="0 0 24 24">
    <g fill="none" fill-rule="evenodd">
        <g stroke="#00B0F0">
            <g>
                <g>
                    <g>
                        <path d="M18.205 2.5c.193 0 .368.078.495.205.126.127.205.302.205.495h0v16.051c-.248.568-.414.663-.591.691-.177.028-.365-.011-.52-.125h0l-5.092-3.701c-.298-.217-.649-.325-1-.325-.35 0-.701.108-1 .325h0l-5.09 3.701c-.605.134-.78.056-.907-.071s-.205-.302-.205-.495h0V3.2c0-.193.078-.368.205-.495S5.007 2.5 5.2 2.5h0z" transform="translate(-335 -228) translate(16 212) translate(62) translate(257 16)"/>
                    </g>
                </g>
            </g>
        </g>
    </g>
</svg>
