<svg xmlns="http://www.w3.org/2000/svg" width="28" height="28" viewBox="0 0 28 28">
    <g fill="none" fill-rule="evenodd">
        <g fill="#717171">
            <g>
                <g>
                    <path d="M23.118 19.649l-.242-.476c-.632-1.266-.964-2.657-.969-4.068v-2.497c-.007-1.741-.61-3.43-1.713-4.793-1.103-1.363-2.64-2.322-4.366-2.723h-.847V3.285c0-.526-.434-.952-.969-.952-.535 0-.969.426-.969.952v1.76h-.847c-1.747.381-3.307 1.341-4.417 2.719-1.112 1.377-1.707 3.087-1.686 4.844v2.498c-.006 1.41-.337 2.8-.969 4.067l-.242.476c-.324.662-.28 1.443.118 2.065.399.624 1.095 1.002 1.843 1.003h3.44c.245 1.122 1.002 2.07 2.053 2.573 1.05.502 2.278.502 3.329 0 1.05-.502 1.807-1.45 2.053-2.573h3.438c.75-.001 1.445-.38 1.843-1.003.398-.622.444-1.403.12-2.065zm-9.106 4.185c-.74-.008-1.407-.446-1.695-1.117h3.39c-.288.67-.954 1.11-1.695 1.117zm7.338-3.115c-.04.069-.113.114-.194.12H6.867c-.08-.003-.156-.044-.2-.11-.043-.067-.05-.151-.017-.224l.242-.476c.759-1.526 1.156-3.2 1.162-4.9v-2.521c-.01-1.3.426-2.568 1.238-3.596.814-1.026 1.956-1.755 3.242-2.065h2.956c1.29.306 2.438 1.032 3.256 2.06.818 1.027 1.257 2.297 1.248 3.601v2.498c.005 1.698.403 3.373 1.162 4.9l.242.475c.03.082.01.173-.048.238z" transform="translate(-323 -596) translate(315 588) translate(8 8)"/>
                </g>
            </g>
        </g>
    </g>
</svg>
