<svg xmlns="http://www.w3.org/2000/svg" width="28" height="28" viewBox="0 0 28 28">
    <g fill="none" fill-rule="evenodd">
        <g fill="#717171">
            <g>
                <g>
                    <path d="M14 4.667c.568 0 1.03.436 1.03.972v.73c1.43.414 2.47 1.673 2.47 3.159 0 1.485-1.04 2.745-2.47 3.16v8.506c0 .537-.462.973-1.03.973-.568 0-1.03-.436-1.03-.973v-8.506c-1.43-.415-2.47-1.675-2.47-3.16 0-1.486 1.04-2.745 2.47-3.16v-.73c0-.535.462-.971 1.03-.971zm-7 0c.568 0 1.03.436 1.03.972v9.285c1.43.414 2.47 1.674 2.47 3.16 0 1.487-1.042 2.744-2.472 3.16-.028.514-.476.923-1.028.923s-1-.409-1.028-.924C4.541 20.828 3.5 19.57 3.5 18.083c0-1.485 1.04-2.745 2.47-3.16V5.64c0-.536.462-.972 1.03-.972zm14 0c.568 0 1.03.436 1.03.972V12.2c1.43.415 2.47 1.674 2.47 3.16 0 1.486-1.04 2.745-2.47 3.16v2.673c0 .537-.462.973-1.03.973-.568 0-1.03-.436-1.03-.973v-2.673c-1.43-.415-2.47-1.674-2.47-3.16 0-1.486 1.04-2.745 2.47-3.16V5.64c0-.536.462-.972 1.03-.972zM7 16.722c-.795 0-1.441.61-1.441 1.361 0 .75.646 1.361 1.441 1.361s1.441-.61 1.441-1.36c0-.751-.646-1.362-1.441-1.362zM21 14c-.795 0-1.441.61-1.441 1.361 0 .75.646 1.361 1.441 1.361s1.441-.61 1.441-1.36C22.441 14.61 21.795 14 21 14zm-7-5.833c-.795 0-1.441.61-1.441 1.36 0 .751.646 1.362 1.441 1.362s1.441-.61 1.441-1.361c0-.75-.646-1.361-1.441-1.361z" transform="translate(-323 -656) translate(315 648) translate(8 8)"/>
                </g>
            </g>
        </g>
    </g>
</svg>
