<svg xmlns="http://www.w3.org/2000/svg" width="46" height="46" viewBox="0 0 46 46">
    <g fill-rule="evenodd">
        <g>
            <g>
                <g>
                    <path d="M42.714 0c.873 0 1.707.347 2.323.963.565.564.903 1.312.956 2.105l.007.218v39.428c0 .873-.347 1.707-.963 2.323-.564.565-1.312.903-2.105.956l-.218.007H3.286c-.873 0-1.707-.347-2.323-.963-.565-.564-.903-1.312-.956-2.105L0 42.714V3.286C0 1.532 1.37.102 3.1.006L3.285 0h39.428zM36.52 23.635c-.937-.847-2.353-.847-3.287 0h-.003l-8.881 7.899c-.934.85-2.35.85-3.287 0l.003.003-2.754-2.45c-.937-.85-2.353-.85-3.287 0l-8.216 7.29c-.68.628-1.066 1.523-1.053 2.457v.224c-.093 1.615 1.12 3.005 2.712 3.109h32.867c.77-.043 1.496-.394 2.01-.977.516-.582.78-1.35.734-2.132l-.064-7.231c.01-.935-.372-1.83-1.052-2.458v-.003zm-.518-18.321c-2.436 0-4.41 1.976-4.41 4.412 0 1.784 1.076 3.391 2.722 4.075 1.649.683 3.545.305 4.81-.956 1.26-1.262 1.636-3.158.956-4.807-.684-1.65-2.291-2.724-4.078-2.724z" transform="translate(-77 -301) translate(36 274) translate(41 27)"/>
                </g>
            </g>
        </g>
    </g>
</svg>
