<svg xmlns="http://www.w3.org/2000/svg" width="24" height="24" viewBox="0 0 24 24">
    <g fill="none" fill-rule="evenodd">
        <g fill="#3E3E3E">
            <g>
                <g>
                    <path d="M12.252 0c3.492 0 5.552 3.472 5.552 6.67 0 3.2-2.06 6.672-5.552 6.672-3.401 0-5.551-3.472-5.551-6.671C6.7 3.472 8.85 0 12.252 0zM7.776 12.52c.626-.457 1.343.456.806 1.005-1.164.823-4.298 2.56-4.746 3.29-.716 1.006-.716 2.65-.537 3.838 4.924 2.833 12.445 2.833 17.46 0 .178-1.187.178-2.832-.538-3.838-.537-.73-3.313-2.193-4.387-3.015-.627-.548.09-1.462.716-1.006 1.343 1.006 3.85 2.193 4.656 3.29 1.075 1.645.806 3.29.627 5.026 0 0-.18.366-.27.457-5.371 3.198-13.698 3.29-19.069 0-.18-.092-.269-.275-.358-.457-.18-1.736-.359-3.381.716-5.026.716-1.005 3.58-2.467 4.924-3.563v-.001zm4.476-11.332c-2.685 0-4.297 2.925-4.297 5.484s1.612 5.483 4.297 5.483c2.776 0 4.387-2.924 4.387-5.483 0-2.56-1.611-5.484-4.387-5.484z" transform="translate(-301 -740) translate(0 708) translate(301 32)"/>
                </g>
            </g>
        </g>
    </g>
</svg>
