<svg xmlns="http://www.w3.org/2000/svg" width="55" height="55" viewBox="0 0 55 55">
    <g fill-rule="evenodd">
        <g>
            <g>
                <g>
                    <path d="M44.69 4.583c.597 0 1.076.432 1.137 1.002l.006.125v48.164c0 .577-.438 1.058-1.017 1.12L44.69 55H8.018c-.588 0-1.074-.443-1.136-1.004l-.007-.122V5.71c0-.589.45-1.06 1.02-1.12l.123-.007H44.69zM49.273 0c.631 0 1.144.508 1.144 1.126v48.165c0 .62-.516 1.126-1.144 1.126h-2.5V6.55c-.006-2.83-.134-2.956-3.008-2.962H11.458V1.126c0-.618.517-1.126 1.144-1.126zm-10.69 44.093h-24.45c-.631 0-1.144.505-1.144 1.126 0 .583.446 1.059 1.019 1.12l.124.006h24.45c.63 0 1.143-.505 1.143-1.126 0-.624-.512-1.126-1.143-1.126zm0-7.715h-24.45c-.631 0-1.144.505-1.144 1.126 0 .583.446 1.059 1.019 1.12l.124.006h24.45c.63 0 1.143-.502 1.143-1.126 0-.624-.512-1.126-1.143-1.126zm0-7.716h-24.45c-.631 0-1.144.505-1.144 1.127 0 .582.446 1.058 1.019 1.12l.124.006h24.45c.63 0 1.143-.502 1.143-1.126 0-.625-.512-1.127-1.143-1.127zm0-7.715h-24.45c-.631 0-1.144.505-1.144 1.126 0 .583.446 1.06 1.019 1.12l.124.007h24.45c.63 0 1.143-.502 1.143-1.127 0-.624-.512-1.126-1.143-1.126zm0-7.715h-24.45c-.631 0-1.144.505-1.144 1.126 0 .583.446 1.059 1.019 1.12l.124.007h24.45c.63 0 1.143-.502 1.143-1.127 0-.624-.512-1.126-1.143-1.126z" transform="translate(-259 -293) translate(223 274) translate(36 19)"/>
                </g>
            </g>
        </g>
    </g>
</svg>
