<svg xmlns="http://www.w3.org/2000/svg" width="24" height="24" viewBox="0 0 24 24">
    <g fill="none" fill-rule="evenodd">
        <g fill="#00B0F0">
            <g>
                <g>
                    <g>
                        <path d="M4 3.2v16.051c0 .663.537 1.2 1.2 1.2.254 0 .5-.08.706-.23l5.09-3.7c.421-.306.991-.306 1.412 0l5.091 3.7c.536.39 1.287.272 1.676-.264.15-.205.23-.452.23-.706V3.2c0-.663-.538-1.2-1.2-1.2H5.2C4.537 2 4 2.537 4 3.2z" transform="translate(-335 -412) translate(16 396) translate(62) translate(257 16)"/>
                    </g>
                </g>
            </g>
        </g>
    </g>
</svg>
