<svg xmlns="http://www.w3.org/2000/svg" width="57" height="57" viewBox="0 0 57 57">
    <g fill-rule="evenodd">
        <g>
            <g>
                <g>
                    <path d="M10.72 45.125c1.553 0 2.875.885 3.462 2.138h41.3c.84 0 1.518.637 1.518 1.425 0 .787-.679 1.424-1.517 1.424H14.182c-.587 1.253-1.909 2.138-3.462 2.138-1.553 0-2.874-.885-3.461-2.138H3.892c-.838 0-1.517-.637-1.517-1.425 0-.787.679-1.424 1.517-1.424H7.26c.587-1.253 1.908-2.138 3.461-2.138zM57 4.75V38H0V4.75h57zm-34.5 7.557v18.136l15-9.068-15-9.068z" transform="translate(-159 -476) translate(123 456) translate(36 20)"/>
                </g>
            </g>
        </g>
    </g>
</svg>
