<svg xmlns="http://www.w3.org/2000/svg" width="62" height="62" viewBox="0 0 62 62">
    <g fill="none" fill-rule="evenodd">
        <g fill="#F0F0F0">
            <g>
                <g>
                    <path d="M31 7.75c-2.62 0-4.77 2.143-4.77 4.756 0 2.25 1.595 4.138 3.71 4.623v6.572c-1.966.283-3.682 1.33-4.835 2.84l-5.531-3.401c.192-.516.298-1.071.298-1.651 0-2.613-2.149-4.756-4.77-4.756-2.62 0-4.769 2.143-4.769 4.756 0 2.613 2.149 4.755 4.77 4.755 1.277 0 2.436-.514 3.295-1.337l5.68 3.484c-.308.813-.497 1.69-.497 2.609 0 .912.19 1.783.497 2.592l-5.697 3.485c-.857-.816-2.01-1.321-3.278-1.321-2.62 0-4.77 2.142-4.77 4.755s2.15 4.756 4.77 4.756c2.62 0 4.769-2.143 4.769-4.756 0-.586-.116-1.147-.315-1.667l5.548-3.402c1.153 1.515 2.863 2.574 4.835 2.857v6.572c-2.115.485-3.71 2.374-3.71 4.623 0 2.613 2.15 4.756 4.77 4.756 2.62 0 4.77-2.143 4.77-4.756 0-2.25-1.595-4.138-3.71-4.623v-6.572c1.972-.283 3.682-1.342 4.835-2.857l5.548 3.402c-.199.52-.315 1.081-.315 1.667 0 2.613 2.149 4.756 4.77 4.756 2.62 0 4.769-2.143 4.769-4.756 0-2.613-2.15-4.755-4.77-4.755-1.269 0-2.421.505-3.278 1.32l-5.697-3.484c.306-.809.497-1.68.497-2.592 0-.918-.189-1.796-.497-2.609l5.68-3.484c.86.823 2.018 1.337 3.296 1.337 2.62 0 4.769-2.142 4.769-4.755s-2.149-4.756-4.77-4.756c-2.62 0-4.769 2.143-4.769 4.756 0 .58.106 1.135.298 1.651l-5.53 3.402c-1.154-1.511-2.87-2.558-4.836-2.84v-6.573c2.115-.485 3.71-2.374 3.71-4.623 0-2.613-2.15-4.756-4.77-4.756z" transform="translate(-250 -326) translate(217 308) translate(33 18)"/>
                </g>
            </g>
        </g>
    </g>
</svg>
