<svg xmlns="http://www.w3.org/2000/svg" width="24" height="24" viewBox="0 0 24 24">
    <g fill="none" fill-rule="evenodd">
        <g fill="#3E3E3E">
            <g>
                <g>
                    <path d="M20.23 12.767c-.297-2.1-1.408-4.006-3.101-5.322.421-1.766-.09-3.708-1.508-5.03-2.14-1.989-5.484-1.853-7.463.23-1.253 1.317-1.677 3.14-1.279 4.798-1.693 1.317-2.803 3.226-3.096 5.328-.89.262-1.707.749-2.35 1.427C-1.72 17.516.671 23 5.28 23c1.354 0 2.66-.527 3.652-1.464.976.387 2.005.593 3.072.593 1.066 0 2.094-.206 3.066-.59 2.354 2.247 6.164 1.673 7.573-.264 1.921-2.094 1.786-5.372-.3-7.306-.61-.566-1.331-.972-2.112-1.202zM8.858 3.297c1.653-1.739 4.386-1.788 6.105-.189 1.566 1.46 1.782 3.847.573 5.566-.536-.747-1.29-1.29-2.155-1.575.51-.402.842-1.014.842-1.708 0-1.21-.995-2.195-2.218-2.195-1.224 0-2.219.984-2.219 2.195 0 .692.332 1.303.84 1.705-.877.29-1.61.826-2.15 1.58-1.16-1.627-1.03-3.896.382-5.38v.001zm1.649 2.095c0-.818.672-1.482 1.498-1.482s1.498.664 1.498 1.482c0 .813-.666 1.474-1.486 1.48h-.027c-.82-.008-1.483-.669-1.483-1.48zm1.498 2.194l.012-.001c1.25.005 2.378.633 3.036 1.66-.814.806-1.888 1.253-3.047 1.253-1.089 0-2.179-.398-3.046-1.25.683-1.08 1.841-1.658 3.03-1.662h.015zM2.13 14.849c1.653-1.744 4.385-1.787 6.105-.188 1.571 1.461 1.786 3.849.572 5.568-.533-.738-1.294-1.286-2.158-1.573.512-.402.848-1.016.848-1.712 0-1.21-.995-2.195-2.218-2.195-1.224 0-2.219.985-2.219 2.195 0 .693.332 1.303.84 1.706-.536.177-1.037.454-1.468.826-.26.223-.487.477-.684.754-1.155-1.63-1.025-3.898.382-5.382zm1.65 2.095c0-.817.673-1.482 1.499-1.482.826 0 1.498.665 1.498 1.482 0 .814-.666 1.475-1.487 1.481h-.024c-.82-.008-1.485-.668-1.485-1.48zm1.499 2.194h.012c1.232.003 2.382.645 3.034 1.66-.814.806-1.888 1.252-3.047 1.252-1.097 0-2.186-.403-3.045-1.25.185-.293.406-.56.672-.787.653-.563 1.491-.873 2.362-.876l.012.001zm4.319 1.634c1.478-2.086 1.22-5.015-.705-6.804-1.097-1.02-2.578-1.537-4.111-1.392.303-1.623 1.159-3.096 2.427-4.178.851 1.841 2.708 3.049 4.796 3.049 1.995 0 3.919-1.142 4.794-3.046 1.268 1.082 2.126 2.553 2.432 4.174-1.669-.158-3.27.48-4.352 1.623-1.723 1.815-1.88 4.593-.469 6.575-1.546.529-3.263.53-4.812-.001zm7.63-3.828c0-.817.673-1.482 1.499-1.482.826 0 1.498.665 1.498 1.482 0 .814-.666 1.475-1.487 1.481h-.024c-.82-.008-1.485-.668-1.485-1.48zm1.499 2.194h.012c1.248.003 2.377.632 3.035 1.658-1.675 1.662-4.391 1.686-6.094.004.182-.287.404-.557.667-.785.66-.563 1.5-.874 2.368-.877h.012zm3.53 1.088c-.536-.747-1.29-1.29-2.155-1.575.51-.402.842-1.013.842-1.708 0-1.21-.995-2.195-2.218-2.195-1.224 0-2.219.985-2.219 2.195 0 .693.332 1.304.84 1.706-.537.178-1.039.454-1.475.827-.257.223-.483.478-.678.75-1.155-1.627-1.025-3.896.382-5.378 1.654-1.744 4.386-1.787 6.105-.188 1.578 1.463 1.79 3.86.576 5.566z" transform="translate(-50 -740) translate(0 708) translate(50 32)"/>
                </g>
            </g>
        </g>
    </g>
</svg>
