<?xml version="1.0" encoding="UTF-8"?>
<svg width="46px" height="54px" viewBox="0 0 46 54" version="1.1" xmlns="http://www.w3.org/2000/svg" xmlns:xlink="http://www.w3.org/1999/xlink">
    <title>Video icon Copy</title>
    <defs>
        <linearGradient x1="50%" y1="0%" x2="50%" y2="100%" id="linearGradient-1">
            <stop stop-color="#00D8F9" offset="0%"></stop>
            <stop stop-color="#00B0F0" offset="100%"></stop>
        </linearGradient>
        <filter id="filter-2">
            <feColorMatrix in="SourceGraphic" type="matrix" values="0 0 0 0 1.000000 0 0 0 0 1.000000 0 0 0 0 1.000000 0 0 0 1.000000 0"></feColorMatrix>
        </filter>
    </defs>
    <g id="Teams" stroke="none" stroke-width="1" fill="none" fill-rule="evenodd">
        <g id="Video-icon-Copy">
            <g id="Group">
                <path d="M36.2566777,1.50340041 C38.7780592,1.57028087 41.0545994,2.6195706 42.7175144,4.28248558 C44.4366763,6.00164744 45.5,8.37664744 45.5,11 L45.5,11 L45.5,52 C45.5,52.4142136 45.3321068,52.7892136 45.0606602,53.0606602 C44.7892136,53.3321068 44.4142136,53.5 44,53.5 L44,53.5 L2,53.5 C1.58578644,53.5 1.21078644,53.3321068 0.939339828,53.0606602 C0.70071566,52.822036 0.542116244,52.5033871 0.507250483,52.1484223 L0.507250483,52.1484223 Z" id="Rectangle" stroke="#00B4F1" fill="url(#linearGradient-1)"></path>
                <g transform="translate(12.000000, 18.000000)" id="Icon/Image" filter="url(#filter-2)">
                    <g>
                        <path d="M20.4285714,0 C20.8459821,0 21.24496,0.165746429 21.5396107,0.460389286 C21.7974301,0.718201786 21.9565511,1.05590179 21.9923029,1.41593103 L22,1.57142857 L22,20.4285714 C22,20.8459821 21.8342536,21.24496 21.5396107,21.5396107 C21.2817982,21.7974301 20.9440982,21.9565511 20.584069,21.9923029 L20.4285714,22 L1.57142857,22 C1.15401786,22 0.75504,21.8342536 0.460389286,21.5396107 C0.202569911,21.2817982 0.0434488951,20.9440982 0.00769706892,20.584069 L0,20.4285714 L0,1.57142857 C0,0.751114484 0.626934403,0.0786070767 1.42829369,0.00641586505 L1.57142857,0 L20.4285714,0 Z M17.4660681,11.3035241 C17.0178415,10.8988253 16.3408646,10.8988253 15.8941706,11.3035241 L15.8941706,11.3035241 L15.8926356,11.3035241 L11.6449756,15.0813376 C11.1982816,15.4875905 10.5213047,15.4875905 10.0730781,15.0813376 L10.0730781,15.0813376 L8.75752015,13.910798 C8.30929358,13.5045451 7.63231662,13.5045451 7.18562265,13.910798 L7.18562265,13.910798 L3.25587889,17.39752 C2.93046467,17.697936 2.7462599,18.1259859 2.75240012,18.5727247 L2.75240012,18.5727247 L2.75240012,18.6801276 C2.70787613,19.4521875 3.28814209,20.1168564 4.04952994,20.1666667 L4.04952994,20.1666667 L19.768505,20.1666667 C20.1369184,20.1464238 20.4838362,19.978312 20.7294452,19.699685 C20.9765907,19.421066 21.1024632,19.053705 21.0809726,18.6801276 L21.0809726,18.6801276 L21.0503874,15.2214066 C21.0550245,14.7746679 20.8723385,14.3466219 20.5469086,14.046202 L20.5469086,14.046202 L20.5469086,14.0446455 Z M17.2181821,2.54131429 C16.0533607,2.54131429 15.1096,3.48668571 15.1096,4.65142857 C15.1096,5.50463571 15.6236929,6.27348464 16.4109393,6.60035357 C17.1997179,6.92721071 18.1066679,6.74614286 18.7113143,6.14302857 C19.3144246,5.53991429 19.4939721,4.63296429 19.1686393,3.84418571 C18.8417821,3.05540714 18.0729607,2.54131429 17.2181821,2.54131429 Z" id="Combined-Shape" fill="#F0F0F0"></path>
                    </g>
                </g>
                <g id="Triangle"></g>
            </g>
            <path d="M31,1 L36,1 C41.5228475,1 46,5.4771525 46,11 L46,17 L46,17 L34,17 C32.3431458,17 31,15.6568542 31,14 L31,1 L31,1 Z" id="Rectangle" fill="#A5E4F8"></path>
        </g>
    </g>
</svg>