<?xml version="1.0" encoding="UTF-8"?>
<svg width="46px" height="54px" viewBox="0 0 46 54" version="1.1" xmlns="http://www.w3.org/2000/svg" xmlns:xlink="http://www.w3.org/1999/xlink">
    <title>PDF icon</title>
    <defs>
        <linearGradient x1="50%" y1="0%" x2="50%" y2="100%" id="linearGradient-1">
            <stop stop-color="#D00014" offset="0%"></stop>
            <stop stop-color="#902E61" offset="100%"></stop>
        </linearGradient>
    </defs>
    <g id="Teams" stroke="none" stroke-width="1" fill="none" fill-rule="evenodd">
        <g id="PDF-icon">
            <g id="Group">
                <path d="M0,1 L36,1 C41.5228475,1 46,5.4771525 46,11 L46,52 C46,53.1045695 45.1045695,54 44,54 L2,54 C0.8954305,54 1.3527075e-16,53.1045695 0,52" id="Rectangle" fill="url(#linearGradient-1)"></path>
                <path d="M19.7641888,28.3641444 C19.3050342,29.4642536 18.8437052,30.3817446 18.3845672,31.2068265 C15.0734753,32.3069357 13.7865642,33.589663 13.142005,34.324536 C11.486459,36.0671089 12.0383077,37.3498362 12.314232,37.8074816 C12.5901563,38.3575362 13.2347156,39 14.2457023,39 C14.5216266,39 14.8902615,38.9076073 15.256689,38.8173654 C16.4530969,38.3597035 17.9232217,36.2497105 19.7641888,32.6743557 C20.5919618,32.3993284 21.5124453,32.2166938 22.523432,32.0318919 C23.9030537,31.7568646 25.0994615,31.57423 26.1104483,31.4818373 C28.5937672,34.0494922 29.4215402,34.5071376 30.5252375,34.7821649 C32.6399215,35.3322195 33.6531156,34.1397011 33.8363294,33.4994376 C34.1122537,32.8569738 34.2049477,31.4818373 32.7326321,30.5665465 C32.0880729,30.1088846 30.3420237,29.3740281 26.7550075,29.5588465 C26.3863892,29.1914265 26.1104483,28.8261737 25.6513102,28.3663281 C24.4549023,27.0836008 23.5366262,25.9834916 22.8920669,25.0660006 C23.8125505,22.5907549 23.9957642,21.3080276 23.9957642,20.2079184 C23.9030702,17.1826181 21.7883696,17 21.6956591,17 L21.602965,17 C20.6824815,17 19.3028599,17.7326727 19.3028599,19.750273 C19.3028599,21.5830549 19.5787842,23.2332186 20.7751921,25.3432281 C20.7751921,26.2564287 20.3160374,27.2641287 19.7642053,28.3642379 L19.7641888,28.3641444 Z M14.5216266,37.1650179 C14.2457023,37.2574105 14.062472,37.2574105 13.969778,37.0726252 L13.8770839,36.9823833 C13.7843899,36.7997486 13.7843899,36.3399195 14.5216432,35.6996559 C14.9807978,35.241994 15.6253405,34.5071376 17.0976727,33.7744649 C15.4421267,36.707356 14.6143537,37.1650564 14.5216432,37.1650564 L14.5216266,37.1650179 Z M31.9048591,32.3069357 C32.1807834,32.4895703 32.3640137,32.7645976 32.2734775,32.9493995 C32.1807834,33.1320341 31.8143228,33.3168194 31.0770696,33.1320341 C30.5252209,32.9493995 29.9733723,32.7646141 28.6864612,31.5742795 C30.7084899,31.6645215 31.7216288,32.1221834 31.9048426,32.3069522 L31.9048591,32.3069357 Z M24.4549023,29.83169 L24.5475963,29.9240827 C23.8125339,30.0164754 22.984761,30.1067173 22.156988,30.2915027 C21.6978334,30.3838954 21.2365044,30.4741373 20.7773664,30.56653 C20.9605967,30.1088681 21.236521,29.6490389 21.4219256,29.0989843 C21.6978499,28.3663116 21.9737742,27.7238478 22.2496986,27.1737932 C22.8921056,27.9967299 23.627168,28.8218118 24.454941,29.831657 L24.4549023,29.83169 Z M21.8788728,18.9208071 C22.0621031,19.0131998 22.4307215,19.3784691 22.4307215,20.3883528 C22.4307215,20.9384074 22.4307215,21.6710801 21.9715668,23.0462166 C21.5124122,21.8536982 21.4197182,20.9384074 21.4197182,19.8382982 C21.4197182,19.1958344 21.6956425,19.0132163 21.8788728,18.9208071 Z" id="Shape-Copy" fill="#FFFFFF" fill-rule="nonzero"></path>
                <g id="Triangle"></g>
            </g>
            <path d="M31,1 L36,1 C41.5228475,1 46,5.4771525 46,11 L46,17 L46,17 L34,17 C32.3431458,17 31,15.6568542 31,14 L31,1 L31,1 Z" id="Rectangle" fill="#F094AD"></path>
        </g>
    </g>
</svg>