<svg xmlns="http://www.w3.org/2000/svg" width="39" height="43" viewBox="0 0 39 43">
        <g fill-rule="nonzero">
            <g>
                <path d="M49.53 31v2.129c0 1.399 1.174 2.544 2.609 2.544h15.72c1.435 0 2.609-1.145 2.609-2.544V31h3.66c.487 0 .87.382.87.849L75 69.15c0 .467-.383.849-.87.849H45.87c-.479 0-.87-.382-.87-.849V31.85c0-.467.391-.849.87-.849h3.66zM84 64l-1.789 5.464c-.112.32-.39.536-.711.536-.314 0-.599-.218-.704-.536L79 64h5zm-14.551-3.168H50.555c-.476 0-.868.373-.87.848 0 .467.391.849.87.849H69.45c.479 0 .87-.382.87-.849 0-.475-.391-.848-.87-.848zM84 40v22h-6V40h6zM69.449 53.802H50.555c-.476 0-.868.382-.87.849 0 .475.391.848.87.848H69.45c.479 0 .87-.373.87-.848 0-.467-.391-.849-.87-.849zm0-7.02H50.555c-.476 0-.868.382-.87.847 0 .467.391.849.87.849l18.894.002c.479 0 .87-.382.87-.85 0-.466-.391-.848-.87-.848zm0-7.022H50.555c-.476 0-.868.382-.87.847 0 .467.391.849.87.849l18.894.002c.479 0 .87-.382.87-.849 0-.467-.391-.849-.87-.849zM80.996 30C82.652 30 84 31.472 84 33.287V39h-5.998L78 33.287C78 31.47 79.342 30 80.996 30zm-12.893-3c.502 0 .897.419.897.931v5.138c0 .52-.395.931-.897.931H51.897c-.494 0-.897-.41-.897-.931V27.93c0-.512.403-.931.897-.931z" transform="translate(-75 -335) translate(30 308)"/>
            </g>
        </g>
</svg>
