<svg xmlns="http://www.w3.org/2000/svg" xmlns:xlink="http://www.w3.org/1999/xlink" width="236" height="262" viewBox="0 0 236 262">
    <defs>
        <path id="w2x6z8o1ha" d="M0.433 0.393L224.154 0.393 224.154 157.768 0.433 157.768z"/>
        <path id="po26fpkrcc" d="M0.142 0.535L211.256 0.535 211.256 145.81 0.142 145.81z"/>
        <path id="0pthyzczse" d="M0 261.659L235.182 261.659 235.182 0.519 0 0.519z"/>
    </defs>
    <g fill="none" fill-rule="evenodd">
        <g>
            <g>
                <g>
                    <g transform="translate(-157) translate(157) translate(6 26)">
                        <mask id="vemfn98aab" fill="#fff">
                            <use xlink:href="#w2x6z8o1ha"/>
                        </mask>
                        <path fill="#00B0F0" d="M229.892 118.283c0-65.11-52.665-117.89-117.63-117.89C47.295.393-5.37 53.173-5.37 118.283s52.666 117.89 117.631 117.89c64.966 0 117.631-52.78 117.631-117.89" mask="url(#vemfn98aab)"/>
                    </g>
                    <g transform="translate(-157) translate(157) translate(6 26) translate(6.563 11.958)">
                        <mask id="kx50ol5s5d" fill="#fff">
                            <use xlink:href="#po26fpkrcc"/>
                        </mask>
                        <path fill="#00B0F0" d="M211.256 106.325c0-58.426-47.26-105.79-105.557-105.79C47.402.535.142 47.899.142 106.325c0 58.426 47.26 105.79 105.557 105.79 58.297 0 105.557-47.364 105.557-105.79" mask="url(#kx50ol5s5d)"/>
                    </g>
                </g>
                <path fill="#D2DCFF" d="M84 147L80.988 181 80 181 83.012 147zM66 147L65.661 150.824 62.988 181 62 181 64.686 150.674 65.012 147z" transform="translate(-157) translate(157)"/>
                <path fill="#D2DCFF" d="M84 181L83.012 181 82.596 176.298 82.101 170.722 80.477 152.383 80 147 80.988 147 81.478 152.537 82.596 165.146 83.09 170.721zM101 181L100.012 181 97.674 154.61 97.674 154.61 97 147 97.988 147 98.675 154.757zM65 145L66 145 66 126 65 126zM83 145L84 145 84 126 83 126z" transform="translate(-157) translate(157)"/>
                <g transform="translate(-157) translate(157)">
                    <path fill="#D2DCFF" d="M98.473 145.28H80.496c.58 0 1.052.471 1.052 1.052 0 .582-.471 1.054-1.052 1.054h17.977c.581 0 1.052-.472 1.052-1.054 0-.58-.47-1.053-1.052-1.053"/>
                    <path fill="#86A2E2" d="M81.548 146.332c0-.581-.471-1.053-1.052-1.053H64.974c-.58 0-1.051.472-1.051 1.053 0 .582.47 1.054 1.051 1.054h15.522c.58 0 1.052-.472 1.052-1.054"/>
                    <path fill="#D2DCFF" d="M85.567 110.157H64.34c-.809 0-1.466.657-1.466 1.468v12.146c0 .81.657 1.468 1.466 1.468h21.227c.808 0 1.465-.657 1.465-1.468v-12.146c0-.81-.657-1.468-1.465-1.468"/>
                    <path fill="#AEC3FF" d="M66.654 147.385l-.45 3.726-1.29-.145.431-3.58h1.309zM80.295 147.385l.649 5.396-1.326-.15-.632-5.246h1.309zM98.834 154.944l-1.325-.143-.894-7.415h1.31l.91 7.558zM65.409 125.239L66.718 125.239 66.718 128.007 65.409 127.862zM84.497 125.239L84.497 129.979 83.189 129.833 83.189 125.239z"/>
                    <path fill="#FCBEB7" d="M91.599 91.725c-5.098.85-11.451-1.05-12.247-2.26-1.846 2.818-2.784 2.73-2.784 2.73v2.112l-.417-.417c-.128-.291-.332-.58-.638-.58-1.678 0-1.795 4.676 1.03 4.947.056.183.113.354.172.51v7.484h6.372v-2.944c.428.118.839.186 1.217.186 2.51 0 6.792-3.7 7.278-9.603.03-1.115.017-2.165.017-2.165"/>
                    <path fill="#311643" d="M83.864 83.713c-4.395 0-5.274 2.347-5.274 2.347-1.875 0-4.746 3.434-3.017 7.25l.008.008.988.99v-2.114s.937.088 2.783-2.73c.796 1.211 7.149 3.111 12.247 2.26 0 0 .012 1.052-.017 2.166v.003c1.905-5.517-1.917-10.18-7.718-10.18"/>
                    <path fill="#F9AFAB" d="M83.087 106.252v-2.944c-1.44-.397-3.081-1.369-4.314-2.295l4.314 5.239z"/>
                    <path fill="#EBEDF4" d="M101.193 156.581L99.863 156.399 98.602 145.935 99.911 145.935z"/>
                    <path fill="#FCBEB7" d="M97.659 116.594L98.814 118.813 92.655 118.813z"/>
                    <path fill="#2F3D6C" d="M85.862 174.73v4.778c0 .556.451 1.008 1.007 1.008h13.527c.13 0 .234-.104.234-.234v-.88c0-.425-.247-.81-.633-.988l-7.822-3.684h-6.313z"/>
                    <path fill="#FCBEB7" d="M85.862 172.012L85.865 174.73 92.175 174.73 92.611 172.012z"/>
                    <path fill="#FFF" d="M83.076 103.475l8.566 3.876c1.177.533 2.136 1.456 2.713 2.614l3.304 6.629-5.004 2.22.415 14.653H68.137l1.088-13.686-4.509.03v-7.488c0-2.32 1.391-4.411 3.528-5.305l8.471-3.543s3.7 2.433 6.361 0"/>
                    <path fill="#FFF" d="M84.86 104.25c-1.288 1.045-2.881 1.61-4.561 1.61-1.78 0-3.52-.693-4.845-1.858l-.273.114c1.386 1.252 3.238 2.003 5.118 2.003 1.785 0 3.475-.618 4.827-1.753l-.266-.115z"/>
                    <path fill="#2F3D6C" d="M99.137 174.73v4.778c0 .556.451 1.008 1.007 1.008h13.528c.129 0 .233-.104.233-.234v-.88c0-.425-.247-.81-.633-.988l-7.822-3.684h-6.313z"/>
                    <path fill="#FCBEB7" d="M99.137 172.012L99.141 174.73 105.45 174.73 105.886 172.012z"/>
                    <path fill="#6277D7" d="M81.411 133.466v.255c-.005 6.418 5.187 11.624 11.594 11.624h5.388l.745 26.666h6.748l4.977-31.795c.554-3.545-2.182-6.75-5.765-6.75H81.411z"/>
                    <path fill="#4A5EA3" d="M97.658 139.2L98.392 145.345 93.973 145.345z"/>
                    <path fill="#6277D7" d="M68.136 133.466v.255c-.006 6.418 5.187 11.624 11.594 11.624h5.387l.745 26.666h6.749l4.976-31.795c.555-3.545-2.181-6.75-5.764-6.75H68.136z"/>
                    <path fill="#FCBEB7" d="M64.716 119.81l.24 8.3c.065 2.242 1.899 4.027 4.139 4.027h14.422l.968-3.379-12.721-2.1-.09-6.893-6.958.045z"/>
                    <path fill="#F9AFAB" d="M68.993 130.411c0 .656-.294 1.243-.758 1.636-1.491-.316-2.689-1.435-3.114-2.89.388-.538 1.02-.888 1.734-.888 1.181 0 2.138.96 2.138 2.142"/>
                    <path fill="#DDD" d="M71.674 119.765L73.627 126.966 71.764 126.658z"/>
                    <path fill="#F9AFAB" d="M82.708 128.465L80.434 132.137 83.517 132.137 84.485 128.758z"/>
                    <path fill="#4A5EA3" d="M107.49 118.813H88.687c-.8 0-1.503.53-1.723 1.3l-3.446 12.024h-7.625c-.368 0-.665.297-.665.665 0 .367.297.664.665.664h29.777l3.544-12.363c.328-1.146-.531-2.29-1.722-2.29"/>
                    <path fill="#89AEFF" d="M97.858 126.677c-.05.562-.401.99-.785.955-.384-.034-.655-.516-.606-1.077.05-.562.4-.99.784-.956.385.034.656.517.607 1.078"/>
                    <path fill="#311643" d="M135.763 63.688c.7-.154 2.678-1.88 2.688-3.66 1.525 2.561 6.21 6.26 13.222 4.059.022-.003.044-.005.067-.005 1.664.01 1.754 4.648-1.05 4.9-.041.137-.084.266-.129.386l-.042 7.543-6.32-.036.017-2.932c-.441.122-.864.191-1.251.189-2.614-.015-7.135-4.08-7.202-10.444m-.105 1.87l-.063 11.268 5.734.032 5.274.03.364.003 7.143.04.078-13.682c.03-5.41-4.311-6.376-4.311-6.376s-1.566-2.551-6.164-2.578c-5.534-.03-9.243 3.344-9.267 7.535-.011 1.924.763 3.168 1.212 3.727"/>
                    <path fill="#FCBEB7" d="M144.214 74.347l.002-.404c-.441.122-.864.191-1.251.189-2.614-.015-7.135-4.08-7.202-10.444.7-.154 2.678-1.879 2.688-3.66 1.525 2.561 6.21 6.26 13.222 4.059.022-.003.044-.005.067-.005 1.664.01 1.755 4.648-1.05 4.901-.041.136-.084.265-.128.385l-.029 5.075 4.936 2.365-.035 6.119-16.448-.094.036-6.178 5.192-2.308z"/>
                    <path fill="#F9AFAB" d="M138.987 82.833l.035-6.178 5.192-2.308.002-.404c1.467-.405 3.137-1.399 4.365-2.327l-9.594 11.217z"/>
                    <path fill="#FCBEB7" d="M131.703 171.813L131.034 174.532 123.89 176.735 124.943 171.774zM155.73 171.95L155.517 175.312 155.96 175.479 156.245 176.921 149.133 174.635 148.971 171.912z"/>
                    <path fill="#2F3D6C" d="M118.383 177.76l5.812-2.463-.305 1.438 7.144-2.203-.012 2.047c-.004.72-.384 1.37-.976 1.733l-.624 1.753c-.053.151-.197.252-.358.252-.208-.002-.376-.172-.375-.38l.006-1.144-4.882 1.494-4.931-.029c-.717-.004-1.295-.59-1.29-1.308.002-.519.313-.987.791-1.19M149.115 176.662l.018-2.047 7.112 2.306-.284-1.442 5.775 2.546c.475.21.78.682.775 1.202-.006.718-.592 1.295-1.31 1.289l-4.93-.043-5.03-1.618-.011 1.197c-.002.208-.172.377-.382.375-.16-.002-.302-.105-.353-.257l-.655-1.927c-.454-.384-.73-.958-.725-1.58"/>
                    <path fill="#6277D7" d="M155.042 103.472l2.567 11.172c.741 3.227 1.022 6.542.832 9.848l-2.71 47.458-6.76-.038-2.606-49.284-14.662 49.185-6.76-.039 12.292-68.404 17.807.102z"/>
                    <path fill="#FFF" d="M146.232 79.856c-1.2-.007-2.154-1.17-2.795-2.347l6.845.04c-1.05 1.163-2.487 2.316-4.05 2.307"/>
                    <path fill="#FE9ECC" d="M134.43 80.722c.858-1.696 2.276-3.042 4.012-3.81l4.073-1.802c-.001.191.324 1.301.922 2.4.641 1.176 1.594 2.34 2.795 2.346 1.563.01 3-1.144 4.05-2.307 1.066-1.181 1.735-2.373 1.735-2.373l4.7 2.214c1.924.906 3.335 2.637 3.836 4.707l2.69 11.11c.44 1.813-.088 3.723-1.395 5.05-2.164-.774-6.228-2.385-6.228-2.385l-.578 7.6-17.807-.102-4.311-19.674 1.505-2.974z"/>
                    <path fill="#FFF" d="M146.047 81.523c.989.006 1.999-.29 2.998-.88.795-.467 1.585-1.12 2.35-1.94 1.299-1.392 2.093-2.816 2.1-2.83l-.264-.125c-.008.014-.777 1.395-2.053 2.76-.746.8-1.513 1.433-2.283 1.886-.953.561-1.912.843-2.847.838-.884-.005-1.678-.305-2.36-.89-.552-.475-1.035-1.138-1.435-1.97-.688-1.43-.87-2.746-.872-2.76l-.274.121c.007.06.176 1.288.88 2.76.419.87.925 1.565 1.51 2.067.736.634 1.594.958 2.55.963"/>
                    <path fill="#FF78BA" d="M156.68 78.831c-.006 1.143.914 2.076 2.056 2.082.458.003.883-.144 1.227-.396-.637-1.23-1.629-2.254-2.859-2.93-.263.346-.42.777-.423 1.244"/>
                    <path fill="#4A5EA3" d="M144.434 105.98l-13.7-.597c-.72-.031-1.34-.518-1.543-1.21l-5.877-20.039c-.125-.425.206-.848.648-.829l13.854.604c.627.027 1.167.45 1.345 1.054l5.92 20.188c.125.426-.205.848-.647.829"/>
                    <path fill="#2F3D6C" d="M129.727 95.388L127.316 97.777 126.914 96.41z"/>
                    <path fill="#FCBEB7" d="M126.419 91.65l3.453.248c.255.018.451.233.447.489l.344.023c.223.015.403.188.428.41l.04.36.002.001c.256.005.46.216.455.472-.004.188-.12.355-.294.424l-.776.303c0 .394-.231.753-.59.916l-2.41 1.1c-.35.16-.739.216-1.12.165-.857-.117-1.547-.762-1.723-1.61l-.145-.701c-.157-.756.081-1.54.631-2.08.336-.33.787-.516 1.258-.52"/>
                    <path fill="#6277D7" d="M143.666 78.401l-2.39 5.76c-.136.324-.332.618-.573.855l-.422.417c-.098.096-.233.04-.234-.098l-.003-.593c0-.339.068-.685.204-1.01l2.39-5.759c.146-.35.493-.539.777-.42.284.118.396.498.25.848"/>
                    <path fill="#FCBEB7" d="M140.547 81.822l1.305-1.778c.167-.23.426-.375.71-.399l2.17-.184c.297-.026.59.071.813.268l1.124.99c.163.144.3.312.408.5l1.375 2.213 13.091 10.72c1.292 1.057 1.396 2.998.225 4.187-1.165 1.184-3.092 1.115-4.17-.148l-11.033-12.932-2.328-1.452-1.725.05c-.4.011-.752-.266-.834-.66l-.095-.112c-.161-.195-.226-.453-.174-.701l.101-.487-.56.357c-.081.053-.183.062-.273.026-.182-.073-.247-.299-.13-.458"/>
                    <path fill="#FF78BA" d="M155.62 95.872L150.786 90.206 155.42 98.5z"/>
                    <path fill="#2F3D6C" d="M144.434 105.98L136.375 108.153 136.826 105.649z"/>
                    <path fill="#FF78BA" d="M135.155 79.547c.253.107.532.168.825.169 1.187.007 2.155-.952 2.162-2.14 0-.17-.018-.337-.055-.496-1.161.581-2.165 1.429-2.932 2.467"/>
                    <path fill="#F9AFAB" d="M157.688 96.737c-.006 1.105.884 2.007 1.988 2.013 1.105.007 2.005-.884 2.01-1.99.007-1.107-.883-2.009-1.987-2.015-1.104-.006-2.004.885-2.01 1.992"/>
                    <path fill="#86A2E2" d="M208.17 174.273v-1.425c0-.44-.356-.797-.795-.797h-32.984c-1.664 0-3.013 1.352-3.013 3.019v2.427c0 1.668 1.349 3.019 3.013 3.019h32.984c.439 0 .796-.357.796-.797v-1.424c0-.44-.357-.798-.796-.798h-31.772c-.67 0-1.212-.543-1.212-1.214 0-.67.543-1.213 1.212-1.213h31.772c.439 0 .796-.357.796-.797"/>
                    <path fill="#D2DCFF" d="M207.85 148.879v-1.424c0-.44-.356-.797-.795-.797H174.07c-1.665 0-3.013 1.351-3.013 3.018v2.428c0 1.667 1.348 3.018 3.013 3.018h32.984c.44 0 .795-.356.795-.797V152.9c0-.44-.356-.797-.795-.797h-31.772c-.67 0-1.212-.543-1.212-1.214 0-.67.543-1.214 1.212-1.214h31.772c.44 0 .795-.357.795-.797"/>
                    <path fill="#AEC3FF" d="M205.814 165.808v-1.424c0-.44-.356-.797-.796-.797h-28.27c-1.665 0-3.014 1.351-3.014 3.018v2.428c0 1.667 1.35 3.018 3.014 3.018h28.27c.44 0 .796-.356.796-.797v-1.424c0-.44-.356-.797-.796-.797h-27.059c-.669 0-1.211-.543-1.211-1.214 0-.67.542-1.214 1.211-1.214h27.059c.44 0 .796-.357.796-.797M210.562 140.644v-1.423c0-.441-.356-.798-.796-.798h-28.27c-1.664 0-3.014 1.352-3.014 3.018v2.428c0 1.667 1.35 3.019 3.014 3.019h28.27c.44 0 .796-.357.796-.797v-1.424c0-.44-.356-.798-.796-.798h-27.058c-.67 0-1.212-.543-1.212-1.213 0-.671.543-1.215 1.212-1.215h27.058c.44 0 .796-.356.796-.797"/>
                    <path fill="#EFF1FA" d="M204.766 166.605v2.428h-26.807c-.669 0-1.21-.543-1.21-1.214 0-.67.541-1.214 1.21-1.214h26.807zM202.398 175.07v2.428h-26.806c-.67 0-1.211-.544-1.211-1.214 0-.67.542-1.214 1.21-1.214h26.807zM202.079 149.676v2.428h-26.807c-.669 0-1.212-.544-1.212-1.214 0-.67.543-1.214 1.212-1.214h26.807zM209.514 141.442v2.427h-26.806c-.67 0-1.212-.543-1.212-1.213s.543-1.214 1.212-1.214h26.806z"/>
                    <path fill="#86A2E2" d="M210.562 157.343v-1.423c0-.441-.356-.798-.796-.798h-28.27c-1.664 0-3.014 1.352-3.014 3.018v2.428c0 1.668 1.35 3.019 3.014 3.019h28.27c.44 0 .796-.357.796-.797v-1.424c0-.44-.356-.798-.796-.798h-27.058c-.67 0-1.212-.543-1.212-1.213 0-.671.543-1.215 1.212-1.215h27.058c.44 0 .796-.356.796-.797"/>
                    <path fill="#EFF1FA" d="M209.514 158.14v2.428h-26.806c-.67 0-1.212-.543-1.212-1.213s.543-1.214 1.212-1.214h26.806z"/>
                    <path fill="#D2DCFF" d="M195.486 134.185h4.857c.239 0 .424.21.396.448l-.41 3.438c-.025.2-.195.353-.398.353h-4.034c-.203 0-.373-.152-.398-.353l-.41-3.438c-.028-.238.158-.448.397-.448"/>
                    <path fill="#FE9ECC" d="M199.581 132.782L199.581 131.22 198.648 132.996 198.648 130.11 197.914 131.927 197.181 130.11 197.181 132.996 196.247 131.22 196.247 132.782 194.887 130.592 195.486 134.185 197.914 134.185 200.342 134.185 200.942 130.592z"/>
                    <mask id="cgfg8lo80f" fill="#fff">
                        <use xlink:href="#0pthyzczse"/>
                    </mask>
                    <path fill="#D2DCFF" d="M34.823 180.516L53.229 180.516 53.229 162.079 34.823 162.079z" mask="url(#cgfg8lo80f)"/>
                    <path fill="#AEC3FF" d="M24.685 180.516L34.823 180.516 34.823 162.079 24.685 162.079z" mask="url(#cgfg8lo80f)"/>
                    <path fill="#86A2E2" d="M24.685 165.771L34.823 165.771 34.823 165.231 24.685 165.231z" mask="url(#cgfg8lo80f)"/>
                    <path fill="#AEC3FF" d="M34.823 165.771L53.229 165.771 53.229 165.231 34.823 165.231z" mask="url(#cgfg8lo80f)"/>
                    <path fill="#86A2E2" d="M47.427 168.411h-6.802c-.12 0-.218-.098-.218-.218v-.043c0-.121.098-.219.218-.219h6.802c.12 0 .219.098.219.219v.043c0 .12-.098.218-.219.218" mask="url(#cgfg8lo80f)"/>
                    <path fill="#92D050" d="M78.773 52.586c0-8.796-7.118-15.925-15.898-15.925s-15.898 7.13-15.898 15.925c0 8.795 7.118 15.924 15.898 15.924s15.898-7.13 15.898-15.924" mask="url(#cgfg8lo80f)"/>
                    <path fill="#FFF" d="M76.28 52.586c0-7.416-6.002-13.428-13.406-13.428-7.403 0-13.404 6.012-13.404 13.428 0 7.416 6.001 13.427 13.404 13.427 7.404 0 13.405-6.011 13.405-13.427" mask="url(#cgfg8lo80f)"/>
                    <path fill="#6277D7" d="M68.499 47.939v12.05c0 .292-.236.53-.529.53H57.779c-.292 0-.528-.238-.528-.53V45.182c0-.292.236-.53.528-.53h7.44l3.28 3.287z" mask="url(#cgfg8lo80f)"/>
                    <path fill="#D2DCFF" d="M68.499 47.939h-2.752c-.292 0-.529-.238-.529-.53v-2.757L68.5 47.94zM62.849 46.886h-4.152c-.13 0-.236-.106-.236-.237 0-.13.106-.236.236-.236h4.152c.13 0 .236.105.236.236 0 .13-.105.237-.236.237M60.79 47.939h-2.093c-.13 0-.236-.106-.236-.237 0-.13.106-.237.236-.237h2.094c.13 0 .236.107.236.237s-.106.237-.236.237M62.46 53.09v1.543l1.304-.771-1.304-.772zm-1.185-.772h3.2c.363 0 .651.289.651.654v1.78c0 .365-.288.653-.651.653h-3.2c-.365 0-.652-.288-.652-.653v-1.78c0-.365.287-.654.652-.654zm0-.355c-.555 0-1.007.453-1.007 1.009v1.78c0 .556.452 1.009 1.007 1.009h3.2c.555 0 1.007-.453 1.007-1.01v-1.78c0-.555-.452-1.008-1.007-1.008h-3.2z" mask="url(#cgfg8lo80f)"/>
                    <path fill="#00B0F0" d="M115.564 65.923c0-5.824-4.713-10.545-10.527-10.545-5.814 0-10.528 4.721-10.528 10.545s4.714 10.546 10.528 10.546 10.527-4.722 10.527-10.546" mask="url(#cgfg8lo80f)"/>
                    <path fill="#FFF" d="M113.913 65.923c0-4.91-3.974-8.891-8.877-8.891-4.902 0-8.876 3.98-8.876 8.891s3.974 8.892 8.876 8.892c4.903 0 8.877-3.981 8.877-8.892" mask="url(#cgfg8lo80f)"/>
                    <path fill="#FE9ECC" d="M109.035 62.907v7.988c0 .193-.156.35-.35.35h-6.755c-.193 0-.35-.157-.35-.35V61.08c0-.194.157-.351.35-.351h4.931l2.174 2.178z" mask="url(#cgfg8lo80f)"/>
                    <path fill="#FFD9E8" d="M109.035 62.907h-1.824c-.193 0-.35-.157-.35-.351v-1.827l2.174 2.178zM107.57 68.163h-1.587c-.221 0-.4-.18-.4-.402 0-.222.179-.401.4-.401h1.586c.222 0 .401.18.401.401 0 .222-.18.402-.4.402M106.823 69.367h-.84c-.221 0-.4-.18-.4-.401 0-.222.179-.402.4-.402h.84c.222 0 .401.18.401.402 0 .221-.18.401-.4.401M105.29 62.209h-2.751c-.087 0-.157-.07-.157-.157 0-.086.07-.156.157-.156h2.751c.087 0 .157.07.157.156 0 .087-.07.157-.157.157M103.926 62.907h-1.387c-.087 0-.157-.07-.157-.157 0-.086.07-.157.157-.157h1.387c.087 0 .157.07.157.157s-.07.157-.157.157M103.723 67.568c.173 0 .314.141.314.314 0 .173-.14.314-.314.314-.172 0-.313-.14-.313-.314 0-.173.14-.314.313-.314m.285.774c.153-.096.256-.266.256-.46 0-.298-.243-.54-.54-.54-.298 0-.54.242-.54.54 0 .194.101.364.254.46-.423.117-.735.49-.735.93 0 .063.05.114.113.114s.114-.051.114-.114c0-.41.356-.742.793-.742.438 0 .794.333.794.742 0 .063.05.114.113.114s.114-.051.114-.114c0-.44-.312-.813-.736-.93" mask="url(#cgfg8lo80f)"/>
                    <path fill="#92D050" d="M161.586 28.868c0-8.835-7.15-15.997-15.97-15.997s-15.97 7.162-15.97 15.997c0 8.836 7.15 15.998 15.97 15.998s15.97-7.162 15.97-15.998" mask="url(#cgfg8lo80f)"/>
                    <path fill="#FFF" d="M159.082 28.868c0-7.45-6.029-13.488-13.466-13.488-7.437 0-13.466 6.039-13.466 13.488 0 7.45 6.029 13.489 13.466 13.489 7.437 0 13.466-6.04 13.466-13.489" mask="url(#cgfg8lo80f)"/>
                    <path fill="#D2DCFF" d="M139.309 36.552L151.924 36.552 151.924 21.184 139.309 21.184z" mask="url(#cgfg8lo80f)"/>
                    <path fill="#D2DCFF" d="M139.886 36.066L151.346 36.066 151.346 21.669 139.886 21.669z" mask="url(#cgfg8lo80f)"/>
                    <path fill="#AEC3FF" d="M139.886 32.252L143.616 28.517 145.476 30.381 148.978 26.874 151.346 29.245 151.346 36.066 139.886 36.066zM144.315 25.42c0 .554-.447 1.002-1 1.002-.552 0-1-.448-1-1.001 0-.553.448-1.001 1-1.001.553 0 1 .448 1 1" mask="url(#cgfg8lo80f)"/>
                    <path fill="#92D050" d="M199.678 60.729c0-7.403-5.99-13.404-13.381-13.404-7.39 0-13.382 6-13.382 13.404 0 7.403 5.991 13.403 13.382 13.403 7.39 0 13.381-6 13.381-13.403" mask="url(#cgfg8lo80f)"/>
                    <path fill="#FFF" d="M197.58 60.729c0-6.243-5.052-11.302-11.284-11.302-6.23 0-11.283 5.06-11.283 11.302s5.052 11.302 11.283 11.302c6.232 0 11.283-5.06 11.283-11.302" mask="url(#cgfg8lo80f)"/>
                    <path fill="#89AEFF" d="M190.666 57.119v9.361c0 .227-.185.411-.41.411h-7.918c-.227 0-.41-.184-.41-.41V54.977c0-.228.183-.412.41-.412h5.78l2.548 2.553z" mask="url(#cgfg8lo80f)"/>
                    <path fill="#D2DCFF" d="M190.666 57.119h-2.138c-.227 0-.41-.185-.41-.411v-2.142l2.548 2.553z" mask="url(#cgfg8lo80f)"/>
                    <path fill="#E1E9FF" d="M186.277 56.3h-3.226c-.101 0-.183-.082-.183-.183 0-.101.082-.184.183-.184h3.226c.101 0 .183.083.183.184 0 .101-.082.184-.183.184M184.677 57.119h-1.626c-.1 0-.183-.083-.183-.184 0-.102.082-.184.183-.184h1.626c.102 0 .184.082.184.184 0 .101-.082.184-.184.184" mask="url(#cgfg8lo80f)"/>
                    <path fill="#D2DCFF" d="M185.016 64.196v.89c0 .269-.217.487-.485.487-.27 0-.486-.218-.486-.487v-.89c0-.27.217-.487.486-.487.268 0 .485.218.485.487M186.782 62.683v2.403c0 .269-.217.486-.485.486-.269 0-.486-.217-.486-.486v-2.403c0-.27.217-.487.486-.487.268 0 .485.218.485.487M188.549 61.427v3.659c0 .269-.218.486-.486.486-.269 0-.487-.217-.487-.486v-3.659c0-.269.218-.486.487-.486.268 0 .486.217.486.486" mask="url(#cgfg8lo80f)"/>
                    <path fill="#00B0F0" d="M71.464 26.874c0-3.143-2.543-5.69-5.68-5.69-3.137 0-5.68 2.547-5.68 5.69 0 3.142 2.543 5.689 5.68 5.689 3.137 0 5.68-2.547 5.68-5.69M123.271 49.427c0-3.143-2.543-5.69-5.68-5.69-3.137 0-5.68 2.547-5.68 5.69 0 3.142 2.543 5.69 5.68 5.69 3.137 0 5.68-2.548 5.68-5.69M177.058 21.67c0-3.143-2.543-5.69-5.68-5.69-3.137 0-5.68 2.547-5.68 5.69 0 3.142 2.543 5.69 5.68 5.69 3.137 0 5.68-2.548 5.68-5.69M210.986 87.57c0-3.442-2.784-6.232-6.22-6.232-3.435 0-6.22 2.79-6.22 6.231s2.785 6.23 6.22 6.23c3.436 0 6.22-2.789 6.22-6.23M186.718 83.713c0-2.13-1.724-3.857-3.85-3.857-2.126 0-3.85 1.727-3.85 3.857s1.724 3.856 3.85 3.856c2.126 0 3.85-1.727 3.85-3.856M57.079 78.683c0-2.13-1.724-3.857-3.85-3.857-2.126 0-3.85 1.727-3.85 3.857s1.724 3.857 3.85 3.857c2.126 0 3.85-1.727 3.85-3.857M106.776 36.66c0-1.582-1.28-2.866-2.862-2.866-1.58 0-2.861 1.284-2.861 2.867s1.281 2.867 2.861 2.867c1.581 0 2.862-1.284 2.862-2.867" mask="url(#cgfg8lo80f)"/>
                </g>
            </g>
        </g>
    </g>
</svg>
