<svg xmlns="http://www.w3.org/2000/svg" width="120" height="119" viewBox="0 0 120 119">
    <defs>
        <filter id="xfeoauqiba">
            <feColorMatrix in="SourceGraphic" values="0 0 0 0 0.000000 0 0 0 0 0.690196 0 0 0 0 0.941176 0 0 0 1.000000 0"/>
        </filter>
    </defs>
    <g fill="none" fill-rule="evenodd">
        <g>
            <g fill-rule="nonzero">
                <g fill="#000" filter="url(#xfeoauqiba)" transform="translate(-113 -264) translate(113 264)">
                    <path d="M84.585 92.026l3.955-2.197c3.052-1.685 4.15-5.542 2.466-8.594-.732-1.343-1.953-2.368-3.394-2.88 1.001-3.223-.732-6.666-3.906-7.813 1.001-3.223-.732-6.665-3.906-7.813.903-2.93-.415-6.079-3.15-7.47.709-2.173.611-4.493-.244-6.617l-.952-2.343c-.195-.464-.561-.855-1.025-1.05l43.555-41.724c.781-.757.806-1.977.049-2.759-.39-.415-.952-.634-1.538-.586l-59.84 3.833c-1.61-2.88-5.248-3.906-8.129-2.319-2.466 1.392-3.638 4.321-2.783 7.031l13.525 42.872-13.989 6.543c-1.636.78-2.832 2.27-3.247 4.028L38.736 77.06.406 100.034l2.002 3.345L41.471 79.94c.463-.268.78-.732.903-1.245l3.491-15.698c.122-.586.537-1.1 1.074-1.343l25.684-11.987.171.439c1.196 3.003-.269 6.42-3.272 7.617-.048.025-.073.025-.122.05l-8.154 3.05c-.952.367-1.465 1.392-1.196 2.369 2.05 7.153-1.05 14.795-7.52 18.506l-1.318.757 1.929 3.394 1.318-.757c3.247-1.856 5.908-4.566 7.69-7.862.733 1.368 1.954 2.417 3.418 2.93-1 3.223.733 6.665 3.907 7.813-.708 2.319-.025 4.858 1.757 6.518l-1.586 1.05c-.318.22-.708.317-1.075.317H54.142c-.367 0-.733.098-1.026.293l-31.25 19.531 2.076 3.32 30.76-19.238h13.892c1.147 0 2.295-.342 3.247-.977l1.953-1.294 4.712 14.893c1.001 3.15 4.346 4.883 7.495 3.882 3.15-1.001 4.883-4.346 3.907-7.495l-5.323-16.748zM62.856 49.913L49.477 7.553c-.341-1.098.269-2.245 1.343-2.587.05-.025.073-.025.122-.025 1.05-.268 2.149.342 2.466 1.392L66.616 48.18l-3.76 1.733zm6.714-5.396L57.998 7.847l53.417-3.442L69.57 44.517zm-4.98 24.17c.073-1.611-.025-3.223-.342-4.785l6.543-2.441c1.538-.562 2.905-1.514 3.955-2.76 1.22.538 1.758 1.978 1.196 3.199-.22.464-.561.854-1.025 1.123l-.318.17-9.619 5.348c-.122.024-.268.097-.39.146zm2.417 7.813c-1.27-.391-1.978-1.734-1.587-3.003.195-.586.586-1.099 1.123-1.392l.317-.17 9.62-5.348c1.171-.634 2.636-.22 3.27.953.636 1.171.22 2.636-.927 3.271l-.317.171-9.62 5.347c-.561.317-1.245.366-1.88.17zm3.906 7.812c-1.27-.39-1.978-1.733-1.587-3.003.195-.586.586-1.099 1.123-1.391l.317-.171 9.62-5.347c1.171-.635 2.636-.22 3.271.952.635 1.172.22 2.637-.928 3.272l-.317.17-9.62 5.347c-.56.318-1.244.366-1.88.171zm3.906 7.813c-1.27-.391-1.977-1.734-1.587-3.003.196-.586.586-1.099 1.123-1.392l.318-.17 9.619-5.348c1.172-.634 2.637-.22 3.271.953.635 1.171.22 2.636-.927 3.271l-9.937 5.518c-.561.317-1.245.39-1.88.17zm11.157 19.457c-.268.488-.756.854-1.294 1.001-1.05.269-2.148-.342-2.466-1.392L77.382 95.86c.44-.122.83-.318 1.246-.513l2.49-1.391 5.054 15.99c.146.538.097 1.148-.196 1.637z"/>
                    <path d="M85.489 23.081l-3.394-4.638 1.587-4.322c.366-1.025-.146-2.124-1.172-2.514-.488-.171-1.025-.147-1.489.073l-3.735 1.733-3.711-2.954c-.855-.683-2.076-.537-2.735.318-.268.341-.415.732-.415 1.172l-.17 4.711-3.736 1.734c-.977.464-1.392 1.611-.952 2.588.22.463.61.83 1.098 1l4.322 1.587 1.342 5.591c.196.782.855 1.368 1.66 1.49.074 0 .171.024.245.024.708 0 1.391-.39 1.709-1.025l2.466-4.566 5.078 1.074c1.05.22 2.1-.439 2.32-1.513.146-.562.023-1.123-.318-1.563zm-7.69-2.148c-.855-.171-1.71.22-2.125.976l-.732 1.368-.39-1.636c-.147-.635-.611-1.148-1.221-1.367l-.88-.318.562-.268c.66-.318 1.099-.977 1.123-1.71l.05-2.05 1.61 1.27c.586.463 1.368.56 2.051.244l.562-.269-.318.879c-.22.61-.122 1.294.269 1.83l1 1.344-1.562-.293z"/>
                </g>
                <path fill="#92D050" d="M86.578 49.14L113.931 37.416 115.469 41.005 88.116 52.729zM92.505 64.483L93.906 60.835 119.288 70.601 117.886 74.248zM97.866 83.721L100.264 80.635 117.841 94.303 115.444 97.389zM89.672 97.002L92.832 94.703 108.457 116.183 105.297 118.483zM25.346 17.09L28.252 14.478 45.825 34.004 42.92 36.616zM8.501 37.129L9.951 33.501 39.239 45.215 37.788 48.843zM1.05 56.763L1.768 52.925 33.013 58.784 32.295 62.622zM4.829 76.386L28.277 70.527 29.224 74.316 5.776 80.175z" transform="translate(-113 -264) translate(113 264)"/>
            </g>
        </g>
    </g>
</svg>
