<?xml version="1.0" encoding="UTF-8"?>
<svg width="46px" height="54px" viewBox="0 0 46 54" version="1.1" xmlns="http://www.w3.org/2000/svg" xmlns:xlink="http://www.w3.org/1999/xlink">
    <title>Video icon</title>
    <defs>
        <linearGradient x1="50%" y1="0%" x2="50%" y2="100%" id="linearGradient-1">
            <stop stop-color="#00D8F9" offset="0%"></stop>
            <stop stop-color="#00B0F0" offset="100%"></stop>
        </linearGradient>
        <filter id="filter-2">
            <feColorMatrix in="SourceGraphic" type="matrix" values="0 0 0 0 1.000000 0 0 0 0 1.000000 0 0 0 0 1.000000 0 0 0 1.000000 0"></feColorMatrix>
        </filter>
    </defs>
    <g id="Teams" stroke="none" stroke-width="1" fill="none" fill-rule="evenodd">
        <g id="Video-icon">
            <g id="Group">
                <path d="M36.2566777,1.50340041 C38.7780592,1.57028087 41.0545994,2.6195706 42.7175144,4.28248558 C44.4366763,6.00164744 45.5,8.37664744 45.5,11 L45.5,11 L45.5,52 C45.5,52.4142136 45.3321068,52.7892136 45.0606602,53.0606602 C44.7892136,53.3321068 44.4142136,53.5 44,53.5 L44,53.5 L2,53.5 C1.58578644,53.5 1.21078644,53.3321068 0.939339828,53.0606602 C0.70071566,52.822036 0.542116244,52.5033871 0.507250483,52.1484223 L0.507250483,52.1484223 Z" id="Rectangle" stroke="#00B4F1" fill="url(#linearGradient-1)"></path>
                <g transform="translate(12.000000, 16.000000)" id="Icon/Connections" filter="url(#filter-2)">
                    <g>
                        <path d="M4.13770911,17.4166667 C4.73708655,17.4166667 5.24722939,17.7582717 5.47370967,18.2416667 L5.47370967,18.2416667 L21.4143559,18.2416667 C21.7380619,18.2416667 22,18.4876624 22,18.7916667 C22,19.0956709 21.7380707,19.3416667 21.4143559,19.3416667 L21.4143559,19.3416667 L5.47370967,19.3416667 C5.24724111,19.8250617 4.73708655,20.1666667 4.13770911,20.1666667 C3.53833168,20.1666667 3.02818883,19.8250617 2.80170855,19.3416667 L2.80170855,19.3416667 L1.50231075,19.3416667 C1.17860477,19.3416667 0.916666667,19.0956709 0.916666667,18.7916667 C0.916666667,18.4876624 1.17859598,18.2416667 1.50231075,18.2416667 L1.50231075,18.2416667 L2.80170855,18.2416667 C3.02817712,17.7582717 3.53833168,17.4166667 4.13770911,17.4166667 Z M22,1.83333333 L22,14.6666667 L0,14.6666667 L0,1.83333333 L22,1.83333333 Z M8.68421053,4.75 L8.68421053,11.75 L14.4736842,8.25 L8.68421053,4.75 Z" id="Combined-Shape" fill="#F0F0F0"></path>
                    </g>
                </g>
                <g id="Triangle"></g>
            </g>
            <path d="M31,1 L36,1 C41.5228475,1 46,5.4771525 46,11 L46,17 L46,17 L34,17 C32.3431458,17 31,15.6568542 31,14 L31,1 L31,1 Z" id="Rectangle" fill="#A5E4F8"></path>
        </g>
    </g>
</svg>