<svg xmlns="http://www.w3.org/2000/svg" xmlns:xlink="http://www.w3.org/1999/xlink" width="294" height="368" viewBox="0 0 294 368">
    <defs>
        <path id="allvql6e0a" d="M0.635 0.59L72.691 0.59 72.691 45.367 0.635 45.367z"/>
        <path id="nk2b5xpa9c" d="M0.635 0.59L23.067 0.59 23.067 26.19 0.635 26.19z"/>
    </defs>
    <g fill="none" fill-rule="evenodd">
        <g>
            <g>
                <g>
                    <path fill="#FFF" d="M165.987 282.77c0-7.172-5.815-12.986-12.986-12.986-7.172 0-12.985 5.814-12.985 12.986 0 7.171 5.813 12.985 12.985 12.985 7.171 0 12.986-5.814 12.986-12.985" transform="translate(-42 -60) translate(42 60) translate(28 .21)"/>
                    <path fill="#FFF" d="M162.748 282.77c0-5.383-4.364-9.747-9.748-9.747-5.382 0-9.746 4.364-9.746 9.747s4.364 9.747 9.746 9.747c5.384 0 9.748-4.364 9.748-9.747" transform="translate(-42 -60) translate(42 60) translate(28 .21)"/>
                    <path fill="#FFF" d="M53.49 92.228c0-14.767-11.97-26.736-26.736-26.736C11.99 65.492.018 77.462.018 92.228c0 14.765 11.97 26.736 26.736 26.736s26.736-11.97 26.736-26.736" opacity=".2" transform="translate(-42 -60) translate(42 60) translate(28 .21)"/>
                    <path fill="#FFF" d="M45.098 92.228c0-10.131-8.213-18.343-18.344-18.343-10.13 0-18.343 8.212-18.343 18.343s8.212 18.343 18.343 18.343c10.13 0 18.344-8.212 18.344-18.343" opacity=".373" transform="translate(-42 -60) translate(42 60) translate(28 .21)"/>
                    <g transform="translate(-42 -60) translate(42 60) translate(28 .21) translate(100)">
                        <mask id="aqoww85l8b" fill="#fff">
                            <use xlink:href="#allvql6e0a"/>
                        </mask>
                        <path fill="#FFF" d="M72.691 43.712l-6.924-7.446V3.686c0-1.71-1.388-3.097-3.097-3.097H3.733C2.023.589.635 1.976.635 3.687V42.27c0 1.71 1.388 3.096 3.098 3.096H62.67c1.65 0 2.985-1.293 3.078-2.92l6.943 1.265z" mask="url(#aqoww85l8b)" opacity=".191"/>
                    </g>
                </g>
                <path fill="#FCBEB7" d="M213.467 134.134L212.724 137.221 204.623 139.765 205.789 134.134zM240.759 134.134L240.539 137.947 241.043 138.134 241.376 139.767 233.283 137.221 233.08 134.134z" transform="translate(-42 -60) translate(42 60)"/>
                <g>
                    <path fill="#2F3D6C" d="M198.377 140.754l6.584-2.832-.337 1.632 8.1-2.544v2.322c0 .816-.427 1.556-1.098 1.971l-.697 1.992c-.06.173-.222.288-.404.288-.237 0-.43-.193-.43-.43v-1.295l-5.535 1.725h-5.601c-.814 0-1.474-.66-1.474-1.475 0-.589.35-1.122.892-1.354M233.276 139.31l.007-2.321 8.093 2.567-.333-1.633 6.577 2.85c.54.235.89.768.888 1.357-.003.815-.665 1.473-1.48 1.47l-5.6-.015-5.725-1.803-.004 1.357c0 .237-.193.429-.43.428-.182 0-.344-.117-.404-.289l-.756-2.18c-.518-.434-.836-1.083-.833-1.789" transform="translate(-42 -60) translate(42 60) translate(0 .21)"/>
                    <g transform="translate(-42 -60) translate(42 60) translate(0 .21) translate(215.2)">
                        <mask id="guomxgzp2d" fill="#fff">
                            <use xlink:href="#nk2b5xpa9c"/>
                        </mask>
                        <path fill="#3A3A3A" d="M2.142 11.291c.795-.18 3.03-2.148 3.03-4.167 1.75 2.893 7.095 7.057 15.045 4.516v.001c.024-.004.05-.006.075-.006 1.891 0 2.023 5.259-1.16 5.563-.047.154-.095.301-.143.438v8.554H11.81v-3.325c-.5.14-.98.222-1.419.222-2.969 0-8.131-4.58-8.249-11.796m-.105 2.12V26.19h21.03V10.675c0-6.136-4.937-7.203-4.937-7.203S16.335.59 11.112.59C4.826.589.635 4.44.635 9.192c0 2.183.887 3.588 1.402 4.22" mask="url(#guomxgzp2d)"/>
                    </g>
                    <path fill="#FCBEB7" d="M227.01 22.865c-.5.14-.98.222-1.419.222-2.969 0-8.131-4.58-8.249-11.796.795-.179 3.03-2.148 3.03-4.167 1.75 2.893 7.095 7.058 15.045 4.516.024-.003.05-.006.076-.006 1.89 0 2.022 5.26-1.16 5.564-.048.154-.096.301-.144.438v5.754l5.622 2.627v6.962h-18.683v-7.565l5.882-1.792v-.757z" transform="translate(-42 -60) translate(42 60) translate(0 .21)"/>
                    <path fill="#F9AFAB" d="M221.128 32.98v-7.565l5.883-1.792v-.758c1.663-.47 3.553-1.606 4.941-2.667l-10.824 12.781z" transform="translate(-42 -60) translate(42 60) translate(0 .21)"/>
                    <path fill="#6277D7" d="M239.534 56.278l2.988 12.652c.863 3.654 1.203 7.412 1.01 11.161l-2.773 53.833h-7.678l-3.279-55.868-16.335 55.868h-7.678l13.519-77.646h20.226z" transform="translate(-42 -60) translate(42 60) translate(0 .21)"/>
                    <path fill="#FFF" d="M229.374 29.557c-1.363 0-2.453-1.313-3.189-2.643h7.775c-1.185 1.326-2.809 2.643-4.586 2.643" transform="translate(-42 -60) translate(42 60) translate(0 .21)"/>
                    <path fill="#FE9ECC" d="M214.827 29.659c1.198-1.866 3.02-3.245 5.143-3.89l5.152-1.57c0 .216.377 1.473 1.063 2.715.736 1.33 1.826 2.643 3.19 2.643 1.776 0 3.4-1.317 4.585-2.643 1.203-1.346 1.955-2.702 1.955-2.702l4.704 2.18c2.132.988 3.66 2.941 4.108 5.249l3.134 16.185h-6.374l-.927-6.104-1.025 14.556h-20.227l-1.837-15.493-4.819 4.334-3.997-5.855 6.172-9.605z" transform="translate(-42 -60) translate(42 60) translate(0 .21)"/>
                    <path fill="#FF78BA" d="M208.656 39.264L214.268 43.665 212.652 45.118z" transform="translate(-42 -60) translate(42 60) translate(0 .21)"/>
                    <path fill="#FCBEB7" d="M186.703 24.046l6.631-2.273c.661-.21 1.381-.132 1.98.218l2.576 1.504 14.763 21.623-2.029 1.854c-1.677 1.532-4.354 1.033-5.368-.999l-9.716-19.478-2.414.296c-.364.045-.734-.024-1.058-.195l-.852-.45c-.398-.212-.703-.564-.854-.989l-.175-.492-3.236.438c-.264.04-.517-.117-.6-.37-.093-.287.066-.595.352-.687M238.804 70.413l1.488-1.339 1.195-21.248h6.374l-3.98 21.967.004 4.988c-.038.677-.334 1.314-.828 1.78l-.618.582c-.755.712-1.765 1.09-2.803 1.051l-.886-.034c-.314-.013-.5-.357-.337-.627l1.285-2.127-.11-3.972-.64 2.316c-.108.39-.5.63-.897.548v-2.197c0-.644.273-1.257.753-1.688" transform="translate(-42 -60) translate(42 60) translate(0 .21)"/>
                    <path fill="#FF78BA" d="M240.93 28.456c0 1.283 1.04 2.323 2.324 2.323.416 0 .808-.11 1.146-.302-.547-1.469-1.553-2.725-2.869-3.58-.373.412-.6.96-.6 1.56" transform="translate(-42 -60) translate(42 60) translate(0 .21)"/>
                    <path fill="#4A5EA3" d="M239.534 56.278L219.308 56.278 219.022 57.921 239.662 56.82z" transform="translate(-42 -60) translate(42 60) translate(0 .21)"/>
                    <path fill="#F9AFAB" d="M205.719 46.673c1.174 1.377 3.288 1.62 4.75.432-.131-1.22-1.165-2.17-2.418-2.17-1.103 0-2.034.733-2.332 1.738" transform="translate(-42 -60) translate(42 60) translate(0 .21)"/>
                    <path fill="#00B0F0" d="M290.373 194.077c0 76.363-61.904 138.267-138.267 138.267-76.364 0-138.268-61.904-138.268-138.267 0-76.364 61.904-138.268 138.268-138.268 76.363 0 138.267 61.904 138.267 138.268" transform="translate(-42 -60) translate(42 60) translate(0 .21)"/>
                    <path stroke="#FFF" stroke-width="7.2" d="M290.373 194.077c0 76.363-61.904 138.267-138.267 138.267-76.364 0-138.268-61.904-138.268-138.267 0-76.364 61.904-138.268 138.268-138.268 76.363 0 138.267 61.904 138.267 138.268z" transform="translate(-42 -60) translate(42 60) translate(0 .21)"/>
                    <path fill="#FFF" d="M250.313 104.751c-19.332-29.473-52.659-48.942-90.54-48.942-14.236 0-27.826 2.755-40.277 7.751l-.24 9.636s-7.524 14.706-4.446 25.649c3.078 10.943 14.705 11.969 16.073 21.544 1.368 9.576-3.078 34.198 8.891 37.276 11.97 3.077 18.467-18.809 30.436-12.995 11.97 5.813 35.256 16.415 45.842 11.627 10.585-4.787 2.378-35.566 17.083-38.643 6.176-1.293 12.231-6.87 17.178-12.903M97.088 167.357c-4.271.828-6.888 5.167-5.606 9.324.832 2.7 1.794 5.992 2.668 9.424 2.15 8.43-1.322 11.901 6.612 17.025 7.934 5.124 13.884 2.645 17.521 14.215 3.637 11.57 7.107 18.017 12.232 23.802 5.123 5.786 5.62 9.257 6.942 16.86s5.62 11.24 10.413 0c4.794-11.24 7.439-24.96 10.58-31.9 3.14-6.943 8.099-11.571 7.603-21.985-.497-10.413 2.81-12.562-9.257-17.19-12.066-4.628-26.574-10.414-29.073-14.711-2.497-4.298-9.605-8.43-19.357-6.777-4.346.737-8.178 1.312-11.278 1.913M134.334 310.082c-8.986-7.188-3.594-15.816-3.235-23.004.36-7.188-9.704-5.032-19.05-7.188-9.345-2.157-19.769 6.828-24.8 13.299-4.469 5.744-11.212 7.24-21.22 9.516 21.788 17.261 48.899 28.097 78.471 29.64.37-.967.7-1.922.976-2.854 2.876-9.705-2.156-12.221-11.142-19.41M216.808 240.638s-7.97-4.948-9.895 3.022c-1.924 7.972 3.299 5.498 7.972 13.194 4.672 7.696 9.07 22.538 14.567 14.567 5.497-7.97 4.946-12.093-1.925-17.316-6.87-5.221-12.094-9.345-10.72-13.467M229.452 212.603c-.825 0-6.322 4.947-1.65 13.468 4.672 8.52 2.474 17.04 8.796 11.817 6.32-5.221 5.497-7.695 10.718-9.894 5.223-2.198 10.17-4.946 6.597-8.52-3.573-3.573-7.42-7.146-12.093-6.871-4.673.274-12.368 0-12.368 0M31.529 169.667c-.825 0-6.322 4.947-1.65 13.467 4.673 8.521 2.475 17.042 8.796 11.82 6.321-5.223 5.497-7.696 10.72-9.895 5.221-2.199 10.168-4.948 6.596-8.52-3.573-3.573-7.421-7.147-12.094-6.872-4.672.275-12.368 0-12.368 0" transform="translate(-42 -60) translate(42 60) translate(0 .21)"/>
                    <path stroke="#FFF" stroke-width=".5" d="M77.028 260.379l-40.157-40.866v-73.062l87.71-66.443 53.298 123.679s75.16-61.11 79.035-61.11c3.876 0 25.546 20.194 25.546 20.194l-25.546 71.179M36.871 219.513L177.879 203.686" transform="translate(-42 -60) translate(42 60) translate(0 .21)"/>
                    <path fill="#606060" d="M256.914 142.576L124.581 80.008" transform="translate(-42 -60) translate(42 60) translate(0 .21)"/>
                    <path stroke="#FFF" stroke-width=".5" d="M256.914 233.95L82.262 288.932" transform="translate(-42 -60) translate(42 60) translate(0 .21)"/>
                    <path fill="#73AA33" d="M44.784 146.452c0-4.37-3.543-7.913-7.913-7.913s-7.913 3.542-7.913 7.913c0 4.37 3.543 7.913 7.913 7.913s7.913-3.543 7.913-7.913" transform="translate(-42 -60) translate(42 60) translate(0 .21)"/>
                    <path fill="#C0EF89" d="M40.747 146.452c0-2.14-1.736-3.876-3.876-3.876-2.14 0-3.876 1.736-3.876 3.876 0 2.14 1.736 3.876 3.876 3.876 2.14 0 3.876-1.736 3.876-3.876" transform="translate(-42 -60) translate(42 60) translate(0 .21)"/>
                    <path fill="#73AA33" d="M132.494 80.008c0-4.37-3.542-7.913-7.913-7.913-4.37 0-7.912 3.543-7.912 7.913s3.542 7.913 7.912 7.913 7.913-3.543 7.913-7.913" transform="translate(-42 -60) translate(42 60) translate(0 .21)"/>
                    <path fill="#C0EF89" d="M128.457 80.008c0-2.14-1.736-3.876-3.876-3.876-2.14 0-3.876 1.735-3.876 3.876 0 2.14 1.736 3.875 3.876 3.875 2.14 0 3.876-1.735 3.876-3.875" transform="translate(-42 -60) translate(42 60) translate(0 .21)"/>
                    <path fill="#73AA33" d="M264.827 142.576c0-4.37-3.543-7.913-7.913-7.913s-7.912 3.543-7.912 7.913 3.542 7.913 7.912 7.913 7.913-3.542 7.913-7.913" transform="translate(-42 -60) translate(42 60) translate(0 .21)"/>
                    <path fill="#C0EF89" d="M260.79 142.576c0-2.14-1.735-3.876-3.876-3.876-2.14 0-3.875 1.735-3.875 3.876 0 2.14 1.735 3.875 3.875 3.875 2.14 0 3.876-1.735 3.876-3.875" transform="translate(-42 -60) translate(42 60) translate(0 .21)"/>
                    <path fill="#73AA33" d="M290.373 162.77c0-4.37-3.543-7.913-7.913-7.913s-7.913 3.543-7.913 7.913 3.543 7.913 7.913 7.913 7.913-3.543 7.913-7.913" transform="translate(-42 -60) translate(42 60) translate(0 .21)"/>
                    <path fill="#C0EF89" d="M286.335 162.77c0-2.14-1.735-3.876-3.875-3.876-2.14 0-3.875 1.736-3.875 3.876 0 2.14 1.734 3.876 3.875 3.876 2.14 0 3.875-1.736 3.875-3.876" transform="translate(-42 -60) translate(42 60) translate(0 .21)"/>
                    <path fill="#73AA33" d="M185.792 203.687c0-4.37-3.543-7.913-7.913-7.913s-7.913 3.542-7.913 7.913c0 4.37 3.543 7.913 7.913 7.913s7.913-3.543 7.913-7.913" transform="translate(-42 -60) translate(42 60) translate(0 .21)"/>
                    <path fill="#C0EF89" d="M181.755 203.687c0-2.14-1.735-3.875-3.876-3.875s-3.875 1.735-3.875 3.875c0 2.14 1.734 3.876 3.875 3.876 2.14 0 3.876-1.735 3.876-3.876" transform="translate(-42 -60) translate(42 60) translate(0 .21)"/>
                    <path fill="#73AA33" d="M264.827 233.95c0-4.37-3.543-7.914-7.913-7.914s-7.912 3.543-7.912 7.914c0 4.37 3.542 7.913 7.912 7.913s7.913-3.543 7.913-7.913" transform="translate(-42 -60) translate(42 60) translate(0 .21)"/>
                    <path fill="#C0EF89" d="M260.79 233.95c0-2.141-1.735-3.876-3.876-3.876-2.14 0-3.875 1.735-3.875 3.876 0 2.14 1.735 3.876 3.875 3.876 2.14 0 3.876-1.736 3.876-3.876" transform="translate(-42 -60) translate(42 60) translate(0 .21)"/>
                    <path fill="#73AA33" d="M44.784 219.513c0-4.37-3.543-7.914-7.913-7.914s-7.913 3.543-7.913 7.914c0 4.37 3.543 7.913 7.913 7.913s7.913-3.543 7.913-7.913" transform="translate(-42 -60) translate(42 60) translate(0 .21)"/>
                    <path fill="#C0EF89" d="M40.747 219.513c0-2.14-1.736-3.876-3.876-3.876-2.14 0-3.876 1.735-3.876 3.876 0 2.14 1.736 3.876 3.876 3.876 2.14 0 3.876-1.736 3.876-3.876" transform="translate(-42 -60) translate(42 60) translate(0 .21)"/>
                    <path fill="#FF9D00" d="M246.222 348.389c7.96-14.573-17.166-21.425-23.224-15.645-6.058 5.78 14.024 32.49 23.224 15.645" transform="translate(-42 -60) translate(42 60) translate(0 .21)"/>
                    <path fill="#FF9D00" d="M256.786 343.94c15.62 0 8.55-27.937 1.873-27.937-8.373 0-19.92 27.937-1.873 27.937" transform="translate(-42 -60) translate(42 60) translate(0 .21)"/>
                    <path fill="#FF4800" d="M252.403 361.011c-2.173-5.03-5.354-9.716-9.455-13.927-6.977-7.165-14.314-10.525-14.388-10.558-.218-.099-.475-.002-.574.217-.1.218-.001.475.216.574.073.033 7.284 3.34 14.146 10.395 4.02 4.135 7.138 8.731 9.266 13.661.241.56.466 1.125.681 1.693h.928c-.256-.69-.527-1.376-.82-2.055M258.27 321.732c.028-.238-.141-.454-.38-.483-.237-.029-.453.142-.481.38-.028.237-2.22 18.96-2.107 41.437h.868c-.112-22.42 2.072-41.098 2.1-41.334" transform="translate(-42 -60) translate(42 60) translate(0 .21)"/>
                    <path fill="#FF9D00" d="M268.825 354.075c12.878 10.483 24.196-12.973 19.617-19.984-4.58-7.008-34.501 7.867-19.617 19.984" transform="translate(-42 -60) translate(42 60) translate(0 .21)"/>
                    <path fill="#FF4800" d="M284.104 337.23c-.134-.198-.403-.252-.602-.118-.063.04-6.328 4.256-12.773 11.186-3.51 3.775-7.502 8.837-10.425 14.768h.97c2.858-5.67 6.692-10.522 10.077-14.162 6.377-6.861 12.57-11.03 12.634-11.07.199-.134.252-.404.119-.603" transform="translate(-42 -60) translate(42 60) translate(0 .21)"/>
                    <path fill="#FF9D00" d="M24.343 348.389c7.96-14.573-17.166-21.425-23.224-15.645-6.058 5.78 14.024 32.49 23.224 15.645" transform="translate(-42 -60) translate(42 60) translate(0 .21)"/>
                    <path fill="#FF9D00" d="M34.907 343.94c15.62 0 8.55-27.937 1.872-27.937-8.372 0-19.919 27.937-1.872 27.937" transform="translate(-42 -60) translate(42 60) translate(0 .21)"/>
                    <path fill="#FF4800" d="M30.524 361.011c-2.173-5.03-5.354-9.716-9.456-13.927-6.976-7.165-14.313-10.525-14.387-10.558-.218-.099-.476-.002-.574.217-.1.218-.002.475.216.574.072.033 7.283 3.34 14.145 10.395 4.022 4.135 7.14 8.731 9.267 13.661.241.56.465 1.125.681 1.693h.928c-.256-.69-.527-1.376-.82-2.055M36.391 321.732c.028-.238-.141-.454-.38-.483-.238-.029-.453.142-.482.38-.028.237-2.218 18.96-2.106 41.437h.868c-.112-22.42 2.072-41.098 2.1-41.334" transform="translate(-42 -60) translate(42 60) translate(0 .21)"/>
                    <path fill="#FF9D00" d="M46.946 354.075c12.877 10.483 24.196-12.973 19.617-19.984-4.58-7.008-34.501 7.867-19.617 19.984" transform="translate(-42 -60) translate(42 60) translate(0 .21)"/>
                    <path fill="#FF4800" d="M62.225 337.23c-.134-.198-.403-.252-.602-.118-.063.04-6.328 4.256-12.774 11.186-3.51 3.775-7.5 8.837-10.424 14.768h.97c2.858-5.67 6.693-10.522 10.077-14.162 6.377-6.861 12.571-11.03 12.633-11.07.2-.134.253-.404.12-.603" transform="translate(-42 -60) translate(42 60) translate(0 .21)"/>
                    <path fill="#FFE6E6" d="M111.202 226.897c-6.032 1.006-13.548-1.239-14.49-2.669-2.184 3.328-3.294 3.224-3.294 3.224v2.496l-.492-.493c-.152-.344-.394-.686-.756-.686-1.985 0-2.124 5.524 1.219 5.844.065.216.133.419.203.601v8.842h7.54v-3.477c.506.14.992.22 1.438.22 2.972 0 8.038-4.372 8.612-11.345.036-1.315.02-2.557.02-2.557" transform="translate(-42 -60) translate(42 60) translate(0 .21)"/>
                    <path fill="#3A3A3A" d="M102.05 217.434c-5.2 0-6.24 2.774-6.24 2.774-2.218 0-5.615 4.055-3.57 8.561l.01.011 1.168 1.168v-2.496s1.11.104 3.294-3.224c.942 1.43 8.458 3.675 14.49 2.67 0 0 .015 1.24-.02 2.556v.004c2.253-6.516-2.268-12.024-9.132-12.024" transform="translate(-42 -60) translate(42 60) translate(0 .21)"/>
                    <path fill="#FFBDBD" d="M101.132 244.057v-3.479c-1.705-.468-3.647-1.615-5.105-2.71l5.105 6.189z" transform="translate(-42 -60) translate(42 60) translate(0 .21)"/>
                    <path fill="#FFA100" d="M119.154 356.355L111.169 356.355 97.742 297.313 83.987 356.355 76.003 356.355 83.442 290.116 112.942 290.116z" transform="translate(-42 -60) translate(42 60) translate(0 .21)"/>
                    <path fill="#2F3D6C" d="M111.803 359.565v5.643c0 .659.533 1.192 1.191 1.192H129c.152 0 .275-.124.275-.276v-1.087c0-.475-.272-.908-.7-1.114l-9.024-4.358h-7.748zM83.12 359.565v5.643c0 .659-.534 1.192-1.192 1.192H65.922c-.152 0-.275-.124-.275-.276v-1.087c0-.475.272-.908.7-1.114l9.024-4.358h7.748z" transform="translate(-42 -60) translate(42 60) translate(0 .21)"/>
                    <path fill="#FFE6E6" d="M111.169 356.355L111.77 359.566 119.551 359.566 119.154 356.355zM76.003 356.355L75.371 359.566 83.12 359.566 83.988 356.355z" transform="translate(-42 -60) translate(42 60) translate(0 .21)"/>
                    <path fill="#4A5EA3" d="M83.283 291.536L113.234 293.228 112.942 290.116 83.442 290.116" transform="translate(-42 -60) translate(42 60) translate(0 .21)"/>
                    <path fill="#FCBEB7" d="M76.511 255.211L83.318 260.443" transform="translate(-42 -60) translate(42 60) translate(0 .21)"/>
                    <path fill="#EB6383" d="M110.989 261.568l1.953 28.548H83.443l1.807-20.343-.4-10.855-1.532 1.526-6.807-5.233 3.658-5.961c.905-1.474 2.212-2.66 3.769-3.414l8.39-4.073.307-.148.958-.466s4.378 2.873 7.525 0l1.682.635.342.128 8.892 3.352c1.393.524 2.527 1.572 3.16 2.919l3.772 8.023-7.977 5.362z" transform="translate(-42 -60) translate(42 60) translate(0 .21)"/>
                    <path fill="#09A0C9" d="M102.8 241.783c-1.442 1.024-3.162 1.577-4.968 1.577-1.902 0-3.71-.614-5.198-1.746l-.306.15c1.563 1.232 3.482 1.9 5.504 1.9 1.938 0 3.783-.614 5.31-1.753l-.342-.128z" transform="translate(-42 -60) translate(42 60) translate(0 .21)"/>
                    <path fill="#4A5EA3" d="M98.07 286.336l-24.024 6.856c-.395.113-.807-.116-.92-.51l-4.306-15.094c-.113-.395.116-.806.51-.919l24.026-6.856c.396-.113.807.116.92.511l4.307 15.092c.112.396-.117.807-.512.92" transform="translate(-42 -60) translate(42 60) translate(0 .21)"/>
                    <path fill="#2A303F" d="M106.45 260.882h-5.878c-.372 0-.674-.302-.674-.675v-11.485c0-.373.302-.675.674-.675h5.877c.373 0 .675.302.675.675v11.485c0 .373-.302.675-.675.675" transform="translate(-42 -60) translate(42 60) translate(0 .21)"/>
                    <path fill="#FFE6E6" d="M124.343 268.915l-5.377-12.71-4.103 2.744-5.764-5.051-1.179-4.04c-.017-.128-.117-.23-.246-.248-.565-.074-1.05.402-.985.968l.202 1.77-2.139.283c-.577.076-1.164.026-1.719-.149l-1.99-.625c-.598-.189-1.233.15-1.41.751l-.768-.178c-.375-.087-.751.141-.848.514l-.005.02c-.083.32.066.655.359.808-.157.613.207 1.238.817 1.404l.017.005c-.164.617.14 1.263.72 1.528l1.507.689c.566.258 1.187.376 1.808.341l3.421-.277 11.617 15.182.001.002c1.028 1.227 2.78 1.65 4.281.947 1.76-.823 2.548-2.893 1.783-4.678" transform="translate(-42 -60) translate(42 60) translate(0 .21)"/>
                    <path fill="#FFBDBD" d="M115.596 259.592L121.82 262.953 123.227 266.279z" transform="translate(-42 -60) translate(42 60) translate(0 .21)"/>
                    <path fill="#2F3D6C" d="M83.427 290.516L74.615 275.161 76.48 274.629z" transform="translate(-42 -60) translate(42 60) translate(0 .21)"/>
                    <path fill="#F9AFAB" d="M74.856 263.74c0 1.248-.892 2.288-2.074 2.517l-.43-1.004c-.435-1.009-.368-2.163.18-3.115l.491-.858c1.06.315 1.833 1.297 1.833 2.46" transform="translate(-42 -60) translate(42 60) translate(0 .21)"/>
                    <path fill="#FFE6E6" d="M90 287.735l-3-1.34c-.208-.092-.369-.265-.447-.479l-.435-1.198 1.516.372.484 1.038c.162.35.573.507.928.355l-.632-1.906c-.118-.304-.346-.552-.638-.695l-3.168-1.558-5.465-17.727 4.175-4.153-6.807-5.233-3.98 6.926c-.548.952-.614 2.107-.18 3.115l11.047 25.264 2.192.101c.264.012.512-.121.648-.348l.239-.398 1.154.094c.247.02.487-.088.635-.287l.27-.366.163.042c.442.117.906-.085 1.122-.487l.8.266c.181-.556-.087-1.159-.621-1.398" transform="translate(-42 -60) translate(42 60) translate(0 .21)"/>
                    <path fill="#C0EF89" d="M118.856 234.811h-6.52c-2.63 0-4.763 2.132-4.763 4.763v3.151c0 1.12.39 2.146 1.035 2.96l-1.035 1.802 2.133-.792c.754.5 1.658.792 2.63.792h6.52c2.63 0 4.763-2.132 4.763-4.762v-3.151c0-2.63-2.132-4.763-4.763-4.763" transform="translate(-42 -60) translate(42 60) translate(0 .21)"/>
                    <path fill="#73AA33" d="M118.955 241.149c0-1.855-1.504-3.359-3.36-3.359-1.854 0-3.358 1.504-3.358 3.359s1.504 3.36 3.359 3.36 3.36-1.505 3.36-3.36" transform="translate(-42 -60) translate(42 60) translate(0 .21)"/>
                    <path fill="#C0EF89" d="M117.241 241.149c0-.909-.736-1.645-1.645-1.645s-1.645.736-1.645 1.645.736 1.645 1.645 1.645 1.645-.736 1.645-1.645" transform="translate(-42 -60) translate(42 60) translate(0 .21)"/>
                    <path fill="#73AA33" d="M123.478 246.029c0-.554-.45-1.004-1.003-1.004-.554 0-1.004.45-1.004 1.004 0 .553.45 1.003 1.004 1.003.553 0 1.003-.45 1.003-1.003" transform="translate(-42 -60) translate(42 60) translate(0 .21)"/>
                    <path fill="#C0EF89" d="M122.966 246.029c0-.272-.22-.492-.491-.492-.272 0-.492.22-.492.492 0 .27.22.49.492.49.271 0 .491-.22.491-.49" transform="translate(-42 -60) translate(42 60) translate(0 .21)"/>
                    <path fill="#FFF" d="M174.573 24.056c0-8.233-6.675-14.908-14.908-14.908s-14.908 6.675-14.908 14.908c0 8.234 6.675 14.908 14.908 14.908s14.908-6.674 14.908-14.908" opacity=".371" transform="translate(-42 -60) translate(42 60) translate(0 .21)"/>
                    <path fill="#FFF" d="M169.894 24.056c0-5.649-4.58-10.228-10.228-10.228-5.65 0-10.229 4.58-10.229 10.228 0 5.649 4.58 10.228 10.229 10.228 5.648 0 10.228-4.579 10.228-10.228" opacity=".481" transform="translate(-42 -60) translate(42 60) translate(0 .21)"/>
                </g>
            </g>
        </g>
    </g>
</svg>
